<?xml version="1.0" encoding="utf-8" ?><svg xmlns="http://www.w3.org/2000/svg" xmlns:xlink="http://www.w3.org/1999/xlink" width="1024" height="1024" viewBox="0 0 1024 1024"><path fill="#AFACCA" transform="matrix(0.994526 -0.00547407 0.00547407 0.994526 -0.00012207 5.60547)" d="M0 0L1024 0L1024 1024L0 1024L0 0Z"/><path fill="#97D4BA" transform="matrix(0.994526 -0.00547407 0.00547407 0.994526 -0.00012207 5.60547)" d="M451.543 223.935C455.712 220.728 462.653 219.97 467.725 218.767C495.33 212.22 524.013 209.001 552.315 212.676C592.119 218.232 629.888 233.709 662.146 257.681C665.467 260.189 672.9 265.269 675.206 268.112C675.338 268.274 675.43 268.464 675.541 268.64C686.345 277.392 696.729 287.836 705.045 299.004L705.738 298.515C708.547 301.481 709.728 304.213 711.776 307.536C714.187 311.447 716.948 315.201 719.042 319.295C722.43 325.921 724.205 333.944 726.27 341.056C726.867 343.112 726.97 342.796 729.08 342.902C729.506 344.043 729.604 344.067 729.193 345.196L727.214 346.732C727.34 349.719 727.41 352.726 727.632 355.708C735.672 353.857 737.825 341.051 749.62 344.134L750.563 345.406C741.209 348.864 733.474 353.899 725.492 359.754C703.992 381.067 693.382 399.687 677.436 424.717C665.697 442.844 654.304 461.192 643.263 479.751C637.401 489.52 625.699 512.665 617.798 519.661C611.628 525.125 603.386 525.931 595.498 525.932C585.976 525.934 575.555 524.318 566.363 527.449L566.398 533.528C574.088 537.294 584.342 536.813 592.572 540.32C601.5 544.124 609.891 549.28 618.395 553.935C623.636 556.804 629.254 558.839 634.53 561.62C641.094 565.08 647.259 569.281 653.847 572.688C674.586 584.05 705.738 601.302 716.801 623.004C723.156 631.447 725.671 642.338 728.295 652.373C731.169 674.877 725.64 693.684 712.449 712.12C713.32 714.936 713.717 717.668 714.095 720.581C710.806 725.056 708.945 725.126 705.649 728.416C702.294 731.765 699.59 735.756 695.741 738.6C691.165 741.982 685.681 743.846 680.851 746.789C675.03 750.336 670.131 755.098 664.117 758.482C659.947 760.828 655.245 761.56 651.128 763.7C646.979 765.857 642.756 769.079 638.079 769.934C637.891 769.968 637.7 769.978 637.511 770.001C630.008 776.797 605.808 782.101 595.459 785.926C590.009 787.94 585.143 790.583 580.339 793.812C580.496 793.89 580.654 793.963 580.808 794.046C581.391 794.362 581.771 794.694 582.242 795.147C583.637 795.552 585.071 795.82 586.205 796.774C585.701 797.185 585.968 797.12 585.349 797.057C581.693 796.68 577.453 794.366 574.038 794.421C567.24 794.529 567.042 801.12 558.829 797.409C556.138 797.683 546.954 798.89 544.728 799.67C543.75 800.013 542.705 799.903 541.681 799.878L544.339 800.587C543.763 801.252 543.639 801.499 542.735 801.498C538.195 801.492 533.656 800.088 529.008 800.13C528.627 799.871 528.163 799.622 527.847 799.287C527.981 797.522 528.177 795.515 528.014 793.76C527.648 789.797 524.679 791.685 522.498 789.637C521.707 787.272 523.025 784.677 522.235 782.445C521.782 781.164 520.683 779.675 519.973 778.475C516.526 772.65 513.31 767.552 513.448 760.505C513.96 760 513.962 759.97 514.641 759.466C516.728 757.92 521.742 754.79 524.271 754.335C525.097 754.186 526.796 754.641 527.684 754.756C527.851 753.49 527.586 752.221 527.83 750.985C528.415 748.024 530.674 744.021 532.458 741.6C533.904 739.636 535.449 739.218 537.766 738.953C538.238 738.899 538.713 738.884 539.184 738.823C546.153 737.926 555.27 727.402 559.471 722.101L559.325 722.532C563.646 717.664 566.416 712.572 569.368 706.816C569.387 706.016 569.478 705.839 569.836 705.158L569.21 704.93C567.065 700.925 569.815 696.126 568.086 692.334C567.291 692.297 566.793 692.298 566.077 691.914C565.223 691.457 565.854 691.663 564.565 691.509C562.76 692.351 561.601 693.736 560.246 695.163C558.662 696.831 557.64 697.713 555.233 697.722C554.9 697.724 554.568 697.712 554.235 697.707C553.649 698.545 553.882 698.535 552.74 698.765C548.195 699.68 543.404 697.425 539.313 698.263L539.716 700.805C538.7 701.316 539.347 701.079 538.073 701.287C534.075 701.94 521.308 707.763 519.189 710.745C518.62 711.546 518.299 712.438 517.867 713.308C516.715 715.622 514.343 717.309 512.909 719.511C508.34 726.527 504.966 738.405 506.532 746.743L506.583 746.535C507.146 750.831 508.615 756.969 505.701 760.652C503.312 763.671 499.692 765.702 496.759 768.172C494.227 770.303 491.675 773.112 490.617 776.297C489.118 780.813 490.041 792.758 490.171 798.008C491.606 798.754 492.819 798.005 494.364 797.846C497.318 797.541 501.403 798.799 504.247 799.652L504.454 799.984C495.573 799.931 461.21 798.938 455.029 794.692C444.945 791.93 434.496 789.349 424.63 785.913C391.122 774.46 360.73 755.382 335.85 730.183C325.844 720.216 316.403 709.959 308.721 698.044C298.803 682.66 289.778 664.778 285.124 647.022C283.909 642.385 283.237 637.464 282.406 632.739C281.376 626.884 280.378 621.124 280.238 615.161C279.979 604.168 281.362 593.824 283.674 583.122L284.243 580.683C285.892 573.614 289.333 566.973 292.401 560.427C296.398 554.918 300.349 549.598 304.157 543.964C303.093 539.999 300.613 535.961 299.349 531.9C295.66 520.042 297.014 504.652 301.22 493.106C307.02 477.187 319.934 465.823 334.984 458.873C334.834 458.411 334.664 457.954 334.533 457.486C333.563 454.008 327.111 447.442 324.679 444.211C319.041 436.723 309.644 423.893 306.733 415.072C304.628 412.029 303.058 408.29 301.833 404.805C299.158 400.278 295.647 383.533 296.433 378.635C296.173 372.861 296.927 367.458 298.604 361.946C299.319 356.812 301.656 351.451 303.366 346.554C303.914 344.452 315.972 316.28 317.101 315C318.408 313.517 320.929 312.962 322.5 311.64C322.746 311.432 322.988 311.22 323.232 311.009C323.597 310.26 323.984 309.518 324.333 308.761C327.053 302.862 331.456 297.31 335.725 292.414C338.214 289.559 341.479 285.987 345.47 285.704C355.812 278.156 364.538 267.841 374.414 259.612L374.797 258.725L374.774 258.395C379.547 252.44 386.29 248.865 391.714 243.653C395.115 239.541 411.884 230.465 417.242 227.462L421.438 225.57C421.567 225.488 421.691 225.398 421.825 225.325C426.655 222.691 432.628 222.438 437.783 223.936C442.311 223.954 447.051 223.533 451.543 223.935Z"/><defs><linearGradient id="gradient_0" gradientUnits="userSpaceOnUse" x1="480.12366" y1="404.51047" x2="713.05182" y2="309.86172"><stop offset="0" stop-color="#5F9D87"/><stop offset="1" stop-color="#A2E3C7"/></linearGradient></defs><path fill="url(#gradient_0)" transform="matrix(0.994526 -0.00547407 0.00547407 0.994526 -0.00012207 5.60547)" d="M451.543 223.935C455.712 220.728 462.653 219.97 467.725 218.767C495.33 212.22 524.013 209.001 552.315 212.676C592.119 218.232 629.888 233.709 662.146 257.681C665.467 260.189 672.9 265.269 675.206 268.112C675.338 268.274 675.43 268.464 675.541 268.64C686.345 277.392 696.729 287.836 705.045 299.004L705.738 298.515C708.547 301.481 709.728 304.213 711.776 307.536C714.187 311.447 716.948 315.201 719.042 319.295C722.43 325.921 724.205 333.944 726.27 341.056C726.867 343.112 726.97 342.796 729.08 342.902C729.506 344.043 729.604 344.067 729.193 345.196L727.214 346.732C727.34 349.719 727.41 352.726 727.632 355.708C735.672 353.857 737.825 341.051 749.62 344.134L750.563 345.406C741.209 348.864 733.474 353.899 725.492 359.754C703.992 381.067 693.382 399.687 677.436 424.717C665.697 442.844 654.304 461.192 643.263 479.751C637.401 489.52 625.699 512.665 617.798 519.661C611.628 525.125 603.386 525.931 595.498 525.932C585.976 525.934 575.555 524.318 566.363 527.449L566.398 533.528C566.28 541.467 567.52 560.048 565.943 566.8C565.373 569.242 564.224 571.637 562.401 573.39C560.633 575.089 558.338 575.899 555.899 575.817C552.386 575.7 547.66 574.136 545.346 571.357C543.592 569.25 543.185 566.617 542.747 564.008C541.348 558.9 542.972 546.795 542.28 540.478L541.517 540.126C537.301 542.188 534.477 545.29 531.22 548.578C529.484 550.348 527.835 552.129 526.257 554.047L525.959 553.732L526.065 552.604C526.628 552.069 527.172 551.53 527.719 550.979C529.795 548.889 529.784 545.978 531.577 543.975C533.225 542.134 536.125 540.864 537.405 538.776C537.892 537.981 538.017 536.861 538.148 535.953C538.175 535.764 538.196 535.574 538.22 535.384C538.996 534.703 540.294 536.047 541.684 535.804C542.901 530.682 541.753 523.707 542.46 518.137L542.571 517.299C543.266 511.757 543.072 505.481 542.906 499.883L542.911 498.785C542.741 498.202 542.633 497.675 542.598 497.068C542.533 495.951 542.592 495.244 541.889 494.299L540.007 494.3C539.698 497.279 539.764 500.47 538.447 503.187L536.941 503.297C525.64 494.76 512.97 494.118 499.468 492.896C499.534 485.084 500.877 467.055 498.286 460.639C495.991 457.54 493.94 455.037 489.879 454.467C486.654 454.014 483.084 454.258 480.462 456.363C477.299 458.902 476.273 462.976 476.006 466.844C475.285 477.313 475.987 488.313 476.043 498.824L473.976 499.33C460.886 499.006 448.509 497.583 435.53 496.1C433.503 495.547 431.509 495.258 429.427 495C429.474 486.731 430.721 469.727 429.025 462.456C428.599 460.63 427.78 459.062 426.485 457.702C424.154 455.252 420.702 453.955 417.34 454.054C414.352 454.142 411.571 455.336 409.581 457.587C405.408 462.309 406.157 469.378 406.514 475.198C400.551 469.603 394.598 463.735 387.213 460.04C368.87 450.864 353.706 452.669 334.984 458.873C334.834 458.411 334.664 457.954 334.533 457.486C333.563 454.008 327.111 447.442 324.679 444.211C319.041 436.723 309.644 423.893 306.733 415.072C304.628 412.029 303.058 408.29 301.833 404.805C299.158 400.278 295.647 383.533 296.433 378.635C296.173 372.861 296.927 367.458 298.604 361.946C299.319 356.812 301.656 351.451 303.366 346.554C303.914 344.452 315.972 316.28 317.101 315C318.408 313.517 320.929 312.962 322.5 311.64C322.746 311.432 322.988 311.22 323.232 311.009C323.597 310.26 323.984 309.518 324.333 308.761C327.053 302.862 331.456 297.31 335.725 292.414C338.214 289.559 341.479 285.987 345.47 285.704C355.812 278.156 364.538 267.841 374.414 259.612L374.797 258.725L374.774 258.395C379.547 252.44 386.29 248.865 391.714 243.653C395.115 239.541 411.884 230.465 417.242 227.462L421.438 225.57C421.567 225.488 421.691 225.398 421.825 225.325C426.655 222.691 432.628 222.438 437.783 223.936C442.311 223.954 447.051 223.533 451.543 223.935Z"/><defs><linearGradient id="gradient_1" gradientUnits="userSpaceOnUse" x1="539.73315" y1="360.70438" x2="296.86649" y2="362.26828"><stop offset="0" stop-color="#0B8B83"/><stop offset="1" stop-color="#49BEB0"/></linearGradient></defs><path fill="url(#gradient_1)" transform="matrix(0.994526 -0.00547407 0.00547407 0.994526 -0.00012207 5.60547)" d="M421.438 225.57C421.567 225.488 421.691 225.398 421.825 225.325C426.655 222.691 432.628 222.438 437.783 223.936C442.311 223.954 447.051 223.533 451.543 223.935C459.905 225.548 467.576 227.487 475.018 231.732C476.433 232.49 477.869 233.502 479.512 233.537C481.602 235.044 483.47 236.702 486.095 237.015C487.34 237.164 488.678 237.295 489.788 237.917C493.321 239.894 502.144 247.599 504.532 250.763C505.299 251.779 505.848 253.078 506.208 254.296C506.958 255.437 507.722 256.155 507.752 257.548L508.29 258.275C511.573 262.642 515.968 266.164 519.244 270.574C523.364 276.12 526.659 282.122 529.776 288.268C532.197 293.041 534.953 298.012 536.749 303.055C541.686 316.919 541.932 334.144 540.109 348.596C538.35 362.537 534.773 376.741 529.587 389.812C527.569 394.899 525.036 399.766 522.983 404.834C519.077 414.472 515.336 424.245 511.541 433.935C508.693 441.208 505.465 448.932 503.378 456.455C501.818 458.315 500.427 459.502 498.286 460.639C495.991 457.54 493.94 455.037 489.879 454.467C486.654 454.014 483.084 454.258 480.462 456.363C477.299 458.902 476.273 462.976 476.006 466.844C475.285 477.313 475.987 488.313 476.043 498.824L473.976 499.33C460.886 499.006 448.509 497.583 435.53 496.1C433.503 495.547 431.509 495.258 429.427 495C429.474 486.731 430.721 469.727 429.025 462.456C428.599 460.63 427.78 459.062 426.485 457.702C424.154 455.252 420.702 453.955 417.34 454.054C414.352 454.142 411.571 455.336 409.581 457.587C405.408 462.309 406.157 469.378 406.514 475.198C400.551 469.603 394.598 463.735 387.213 460.04C368.87 450.864 353.706 452.669 334.984 458.873C334.834 458.411 334.664 457.954 334.533 457.486C333.563 454.008 327.111 447.442 324.679 444.211C319.041 436.723 309.644 423.893 306.733 415.072C304.628 412.029 303.058 408.29 301.833 404.805C299.158 400.278 295.647 383.533 296.433 378.635C296.173 372.861 296.927 367.458 298.604 361.946C299.319 356.812 301.656 351.451 303.366 346.554C303.914 344.452 315.972 316.28 317.101 315C318.408 313.517 320.929 312.962 322.5 311.64C322.746 311.432 322.988 311.22 323.232 311.009C323.597 310.26 323.984 309.518 324.333 308.761C327.053 302.862 331.456 297.31 335.725 292.414C338.214 289.559 341.479 285.987 345.47 285.704C355.812 278.156 364.538 267.841 374.414 259.612L374.797 258.725L374.774 258.395C379.547 252.44 386.29 248.865 391.714 243.653C395.115 239.541 411.884 230.465 417.242 227.462L421.438 225.57Z"/><path fill="#A2C9C9" transform="matrix(0.994526 -0.00547407 0.00547407 0.994526 -0.00012207 5.60547)" d="M323.232 311.009C323.597 310.26 323.984 309.518 324.333 308.761C327.053 302.862 331.456 297.31 335.725 292.414C338.214 289.559 341.479 285.987 345.47 285.704C343.862 287.687 341.889 289.723 340.627 291.935C334.141 298.247 326.865 312.734 319.916 316.852C320.278 314.886 322.282 312.794 323.232 311.009Z"/><path fill="#5DAC97" transform="matrix(0.994526 -0.00547407 0.00547407 0.994526 -0.00012207 5.60547)" d="M475.018 231.732C476.433 232.49 477.869 233.502 479.512 233.537C481.602 235.044 483.47 236.702 486.095 237.015C487.34 237.164 488.678 237.295 489.788 237.917C493.321 239.894 502.144 247.599 504.532 250.763C505.299 251.779 505.848 253.078 506.208 254.296C506.958 255.437 507.722 256.155 507.752 257.548C503.38 253.2 498.332 249.303 493.628 245.302C489.115 242.081 484.847 237.249 479.718 235.115C477.982 235.37 479.041 235.994 477.639 236.738L476.169 236.212C475.107 234.922 475.171 233.328 475.018 231.732Z"/><path fill="#81BDC2" transform="matrix(0.994526 -0.00547407 0.00547407 0.994526 -0.00012207 5.60547)" d="M323.232 311.009C322.282 312.794 320.278 314.886 319.916 316.852C317.396 322.908 314.046 328.577 311.063 334.408C309.811 336.857 308.754 339.854 307.189 342.075C306.062 343.675 304.511 344.87 303.366 346.554C303.914 344.452 315.972 316.28 317.101 315C318.408 313.517 320.929 312.962 322.5 311.64C322.746 311.432 322.988 311.22 323.232 311.009Z"/><path fill="#47A3A0" transform="matrix(0.994526 -0.00547407 0.00547407 0.994526 -0.00012207 5.60547)" d="M374.414 259.612C372.107 266.033 366.699 270.768 361.071 274.491C360.199 275.068 358.156 275.979 357.591 276.706C357.159 277.263 356.96 278.646 356.812 279.347L356.338 278.356C353.919 278.874 349.579 283.229 348.187 285.299C347.745 285.958 347.385 286.668 346.999 287.36C345.792 289.523 344.383 291.254 341.85 291.836C341.353 291.951 341.101 291.932 340.627 291.935C341.889 289.723 343.862 287.687 345.47 285.704C355.812 278.156 364.538 267.841 374.414 259.612Z"/><path fill="#A2C9C9" transform="matrix(0.994526 -0.00547407 0.00547407 0.994526 -0.00012207 5.60547)" d="M391.714 243.653C395.115 239.541 411.884 230.465 417.242 227.462L417.657 230.576C412.986 233.147 408.306 235.666 403.853 238.605C400.651 240.307 397.549 242.145 394.444 244.015C393.444 243.573 392.804 243.664 391.714 243.653Z"/><path fill="#81BDC2" transform="matrix(0.994526 -0.00547407 0.00547407 0.994526 -0.00012207 5.60547)" d="M391.714 243.653C392.804 243.664 393.444 243.573 394.444 244.015C392.631 245.474 391.313 247.188 390.683 249.464C389.116 250.597 387.346 251.526 385.862 252.747C383.908 254.356 381.229 258.058 378.86 258.698C377.686 259.015 376.021 258.746 374.797 258.725L374.774 258.395C379.547 252.44 386.29 248.865 391.714 243.653Z"/><path fill="#A2C9C9" transform="matrix(0.994526 -0.00547407 0.00547407 0.994526 -0.00012207 5.60547)" d="M421.438 225.57C421.567 225.488 421.691 225.398 421.825 225.325C426.655 222.691 432.628 222.438 437.783 223.936C432.753 224.147 428.364 225.643 423.936 227.997C423.195 226.818 422.559 226.339 421.438 225.57Z"/><path fill="#47A3A0" transform="matrix(0.994526 -0.00547407 0.00547407 0.994526 -0.00012207 5.60547)" d="M394.444 244.015C397.549 242.145 400.651 240.307 403.853 238.605C400.305 243.642 395.789 246.234 390.683 249.464C391.313 247.188 392.631 245.474 394.444 244.015Z"/><path fill="#5DAC97" transform="matrix(0.994526 -0.00547407 0.00547407 0.994526 -0.00012207 5.60547)" d="M298.604 361.946C298.729 366.336 298.662 372.137 297.146 376.231C296.852 377.024 296.77 377.843 296.433 378.635C296.173 372.861 296.927 367.458 298.604 361.946Z"/><path fill="#81BDC2" transform="matrix(0.994526 -0.00547407 0.00547407 0.994526 -0.00012207 5.60547)" d="M421.438 225.57C422.559 226.339 423.195 226.818 423.936 227.997L417.657 230.576L417.242 227.462L421.438 225.57Z"/><path fill="#5DAC97" transform="matrix(0.994526 -0.00547407 0.00547407 0.994526 -0.00012207 5.60547)" d="M301.833 404.805L303.561 406.772L303.582 406.203L303.651 404.914L304.31 404.741C306.334 406.887 305.603 410.872 306.474 413.611C306.716 414.37 306.622 414.051 306.733 415.072C304.628 412.029 303.058 408.29 301.833 404.805Z"/><path fill="#F9F9FA" transform="matrix(0.994526 -0.00547407 0.00547407 0.994526 -0.00012207 5.60547)" d="M485.959 412.35C493.399 411.371 500.226 416.603 501.217 424.041C502.207 431.479 496.986 438.314 489.549 439.316C482.096 440.32 475.243 435.086 474.25 427.631C473.258 420.176 478.503 413.331 485.959 412.35Z"/><path fill="#97D4BA" transform="matrix(0.994526 -0.00547407 0.00547407 0.994526 -0.00012207 5.60547)" d="M451.543 223.935C455.712 220.728 462.653 219.97 467.725 218.767C495.33 212.22 524.013 209.001 552.315 212.676C592.119 218.232 629.888 233.709 662.146 257.681C665.467 260.189 672.9 265.269 675.206 268.112C675.338 268.274 675.43 268.464 675.541 268.64L674.805 268.706C671.851 266.663 664.566 265.809 660.924 265.328C658.994 265.074 656.482 264.626 654.822 265.882L654.967 267.487C653.83 269.15 651.586 269.037 649.847 270.127C648.165 273.812 648.738 279.284 648.755 283.25C643.112 288.517 645.934 295.246 642.76 301.212C641.81 302.997 639.884 304.083 638.786 305.755C637.49 307.727 639.643 309.282 639.459 311.37C639.123 315.165 632.076 326.601 632.111 330.897C632.132 333.353 634.173 336.461 634.547 339.055C634.785 340.704 634.277 341.479 633.263 342.711C631.961 343.221 631.082 342.837 629.81 342.456C628.875 342.176 626.614 343.779 625.527 344.227C618.143 343.547 618.864 339.219 614.838 336.426C614.25 336.017 612.976 336.181 612.412 335.806C608.671 333.317 603.278 323.592 599.05 320.897C594.235 317.829 591.033 311.036 587.395 306.575C580.189 297.738 570.348 285.564 562.33 277.749C557.21 272.759 551.814 268.443 545.789 264.592C541.447 261.816 536.018 259.569 532.41 255.956C528.482 252.023 516.079 244.603 510.628 243.194C508.354 242.607 505.803 243.518 503.581 242.633C501.858 241.946 501.221 239.096 499.912 237.853C498.308 236.329 490.44 234.513 487.937 233.732L487.446 234.065C487.323 235.257 487.521 234.748 486.951 235.627C484.779 235.792 481.936 233.904 479.512 233.537C477.869 233.502 476.433 232.49 475.018 231.732C467.576 227.487 459.905 225.548 451.543 223.935Z"/><path fill="#F9F9FA" transform="matrix(0.994526 -0.00547407 0.00547407 0.994526 -0.00012207 5.60547)" d="M573.585 464.444C585.387 457.437 597.917 450.945 612.208 454.314C615.344 455.053 618.566 457.014 620.163 459.886C620.783 461.001 621.204 462.249 621.636 463.446C621.258 465.778 620.982 468.164 620.239 470.412C617.921 473.668 616.243 475.376 612.18 475.968C605.869 476.889 599.947 474.753 593.674 477.138C586.321 478.439 579.465 484.164 575.291 490.15C567.024 502.006 566.144 513.461 566.363 527.449L566.398 533.528C566.28 541.467 567.52 560.048 565.943 566.8C565.373 569.242 564.224 571.637 562.401 573.39C560.633 575.089 558.338 575.899 555.899 575.817C552.386 575.7 547.66 574.136 545.346 571.357C543.592 569.25 543.185 566.617 542.747 564.008C541.348 558.9 542.972 546.795 542.28 540.478L541.517 540.126C537.301 542.188 534.477 545.29 531.22 548.578C529.484 550.348 527.835 552.129 526.257 554.047L525.959 553.732L526.065 552.604C526.628 552.069 527.172 551.53 527.719 550.979C529.795 548.889 529.784 545.978 531.577 543.975C533.225 542.134 536.125 540.864 537.405 538.776C537.892 537.981 538.017 536.861 538.148 535.953C538.175 535.764 538.196 535.574 538.22 535.384C538.996 534.703 540.294 536.047 541.684 535.804C542.901 530.682 541.753 523.707 542.46 518.137L542.571 517.299C543.266 511.757 543.072 505.481 542.906 499.883L542.911 498.785C542.916 490.999 541.722 466.711 543.558 460.567C544.612 460.019 545.454 459.874 546.611 459.688L547.745 461.082C549.89 460.9 552.381 458.79 554.18 457.605C556.935 457.705 559.731 458.026 562.313 456.873C563.36 458.358 564.545 459.843 565.281 461.508L565.85 465.201L567.864 464.183L568.797 464.5C569.359 465.926 569.339 467.243 569.371 468.748C570.712 467.253 572.16 465.858 573.585 464.444Z"/><path fill="#7EC1AB" transform="matrix(0.994526 -0.00547407 0.00547407 0.994526 -0.00012207 5.60547)" d="M542.571 517.299C542.976 523.544 542.627 529.833 542.751 536.09C542.933 545.198 543.817 554.98 542.747 564.008C541.348 558.9 542.972 546.795 542.28 540.478L541.517 540.126C537.301 542.188 534.477 545.29 531.22 548.578C529.484 550.348 527.835 552.129 526.257 554.047L525.959 553.732L526.065 552.604C526.628 552.069 527.172 551.53 527.719 550.979C529.795 548.889 529.784 545.978 531.577 543.975C533.225 542.134 536.125 540.864 537.405 538.776C537.892 537.981 538.017 536.861 538.148 535.953C538.175 535.764 538.196 535.574 538.22 535.384C538.996 534.703 540.294 536.047 541.684 535.804C542.901 530.682 541.753 523.707 542.46 518.137L542.571 517.299Z"/><path fill="#719D89" transform="matrix(0.994526 -0.00547407 0.00547407 0.994526 -0.00012207 5.60547)" d="M565.85 465.201L567.864 464.183L568.797 464.5C569.359 465.926 569.339 467.243 569.371 468.748C567.716 470.31 566.644 472.042 565.466 473.96C565.627 471.042 565.755 468.122 565.85 465.201Z"/><defs><linearGradient id="gradient_2" gradientUnits="userSpaceOnUse" x1="499.64743" y1="488.43671" x2="534.46136" y2="476.85751"><stop offset="0" stop-color="#147D70"/><stop offset="1" stop-color="#2C988F"/></linearGradient></defs><path fill="url(#gradient_2)" transform="matrix(0.994526 -0.00547407 0.00547407 0.994526 -0.00012207 5.60547)" d="M498.286 460.639C500.427 459.502 501.818 458.315 503.378 456.455C503.851 459.265 503.779 463.874 506.259 465.552C509.272 467.591 512.981 468.758 516.254 470.35C522.522 473.396 538.5 482.314 539.688 489.434C539.948 490.988 540.016 492.73 540.007 494.3C539.698 497.279 539.764 500.47 538.447 503.187L536.941 503.297C525.64 494.76 512.97 494.118 499.468 492.896C499.534 485.084 500.877 467.055 498.286 460.639Z"/><path fill="#979BB9" transform="matrix(0.994526 -0.00547407 0.00547407 0.994526 -0.00012207 5.60547)" d="M705.045 299.004L705.738 298.515C708.547 301.481 709.728 304.213 711.776 307.536C714.187 311.447 716.948 315.201 719.042 319.295C722.43 325.921 724.205 333.944 726.27 341.056C726.867 343.112 726.97 342.796 729.08 342.902C729.506 344.043 729.604 344.067 729.193 345.196L727.214 346.732C727.34 349.719 727.41 352.726 727.632 355.708C735.672 353.857 737.825 341.051 749.62 344.134L750.563 345.406C741.209 348.864 733.474 353.899 725.492 359.754C726.066 357.354 726.289 357.162 725.178 355.001C725.847 354.324 726.481 353.628 726.702 352.67C727.215 350.438 726.278 346.683 725.886 344.411C723.827 332.495 718.784 320.051 712.357 309.796C710.049 306.112 707.35 302.69 705.045 299.004Z"/><path fill="#5DAC97" transform="matrix(0.994526 -0.00547407 0.00547407 0.994526 -0.00012207 5.60547)" d="M620.239 470.412L621.253 470.562C622.22 469.565 622.426 469.357 623.747 468.971L623.856 469.75C623.705 469.906 623.549 470.059 623.401 470.218C622.093 471.624 621.987 473.049 621.607 474.881L621.773 475.146C623.095 474.388 624.286 473.565 625.835 473.411C625.324 474.557 625.748 474.086 624.809 474.617C623.266 475.492 622.224 476.533 621.112 477.873C615.056 477.782 609.036 476.93 602.984 476.876C600.244 476.851 596.187 477.797 593.674 477.138C599.947 474.753 605.869 476.889 612.18 475.968C616.243 475.376 617.921 473.668 620.239 470.412Z"/><path fill="#E8F2F4" transform="matrix(0.994526 -0.00547407 0.00547407 0.994526 -0.00012207 5.60547)" d="M543.558 460.567C543.624 460.446 543.685 460.321 543.757 460.202C545.486 457.335 548.124 455.453 551.395 454.703C555.225 453.825 559.051 454.821 562.313 456.873C559.731 458.026 556.935 457.705 554.18 457.605C552.381 458.79 549.89 460.9 547.745 461.082L546.611 459.688C545.454 459.874 544.612 460.019 543.558 460.567Z"/><path fill="#5DAC97" transform="matrix(0.994526 -0.00547407 0.00547407 0.994526 -0.00012207 5.60547)" d="M565.281 461.508C565.438 461.341 565.601 461.179 565.752 461.006C566.789 459.821 567.282 457.729 567.616 456.209C568.906 456.77 569.773 458.244 570.33 459.539C570.795 460.62 570.838 460.567 570.402 461.727C570.012 462.764 569.745 463.773 569.497 464.852L569.949 465.752L570.777 465.92L572.529 464.368L573.585 464.444C572.16 465.858 570.712 467.253 569.371 468.748C569.339 467.243 569.359 465.926 568.797 464.5L567.864 464.183L565.85 465.201L565.281 461.508Z"/><path fill="#97D4BA" transform="matrix(0.994526 -0.00547407 0.00547407 0.994526 -0.00012207 5.60547)" d="M632.335 349.217C633.269 349.552 633.005 349.36 633.681 349.918C634.381 350.496 634.181 351.587 634.238 352.466C634.307 352.412 634.38 352.364 634.445 352.306C634.622 352.146 634.79 351.977 634.962 351.813C635.837 352.455 636.961 353.172 637.498 354.138C640.342 359.251 633.345 366.514 632.53 371.178C632.222 372.941 633.318 374.743 632.439 376.495C632.073 377.225 631.365 377.288 630.656 377.582C629.547 377.906 628.245 378.398 627.084 378.145C625.896 377.886 624.978 377.036 624.356 376.038C620.51 369.868 629.387 358.424 631.144 352.336C631.461 351.236 631.87 350.264 632.335 349.217Z"/><path fill="#97D4BA" transform="matrix(0.994526 -0.00547407 0.00547407 0.994526 -0.00012207 5.60547)" d="M637.318 378.81C638.33 379.58 639.23 380.832 639.825 381.969C640.635 383.516 640.231 384.778 639.737 386.31C638.755 387.294 638.615 387.47 637.274 387.772C635.768 387.392 635.337 386.961 634.321 385.868C635.619 385.452 636.937 385.89 638.314 385.489C637.541 384.601 636.652 383.703 636.455 382.49C636.213 380.996 636.463 379.974 637.318 378.81Z"/><defs><linearGradient id="gradient_3" gradientUnits="userSpaceOnUse" x1="502.82584" y1="683.64117" x2="712.7948" y2="616.71875"><stop offset="0" stop-color="#0A7672"/><stop offset="1" stop-color="#25A89F"/></linearGradient></defs><path fill="url(#gradient_3)" transform="matrix(0.994526 -0.00547407 0.00547407 0.994526 -0.00012207 5.60547)" d="M566.398 533.528C574.088 537.294 584.342 536.813 592.572 540.32C601.5 544.124 609.891 549.28 618.395 553.935C623.636 556.804 629.254 558.839 634.53 561.62C641.094 565.08 647.259 569.281 653.847 572.688C674.586 584.05 705.738 601.302 716.801 623.004C723.156 631.447 725.671 642.338 728.295 652.373C731.169 674.877 725.64 693.684 712.449 712.12C713.32 714.936 713.717 717.668 714.095 720.581C710.806 725.056 708.945 725.126 705.649 728.416C702.294 731.765 699.59 735.756 695.741 738.6C691.165 741.982 685.681 743.846 680.851 746.789C675.03 750.336 670.131 755.098 664.117 758.482C659.947 760.828 655.245 761.56 651.128 763.7C646.979 765.857 642.756 769.079 638.079 769.934C637.891 769.968 637.7 769.978 637.511 770.001C630.008 776.797 605.808 782.101 595.459 785.926C590.009 787.94 585.143 790.583 580.339 793.812C580.496 793.89 580.654 793.963 580.808 794.046C581.391 794.362 581.771 794.694 582.242 795.147C583.637 795.552 585.071 795.82 586.205 796.774C585.701 797.185 585.968 797.12 585.349 797.057C581.693 796.68 577.453 794.366 574.038 794.421C567.24 794.529 567.042 801.12 558.829 797.409C556.138 797.683 546.954 798.89 544.728 799.67C543.75 800.013 542.705 799.903 541.681 799.878L544.339 800.587C543.763 801.252 543.639 801.499 542.735 801.498C538.195 801.492 533.656 800.088 529.008 800.13C528.627 799.871 528.163 799.622 527.847 799.287C527.981 797.522 528.177 795.515 528.014 793.76C527.648 789.797 524.679 791.685 522.498 789.637C521.707 787.272 523.025 784.677 522.235 782.445C521.782 781.164 520.683 779.675 519.973 778.475C516.526 772.65 513.31 767.552 513.448 760.505C513.96 760 513.962 759.97 514.641 759.466C516.728 757.92 521.742 754.79 524.271 754.335C525.097 754.186 526.796 754.641 527.684 754.756C527.851 753.49 527.586 752.221 527.83 750.985C528.415 748.024 530.674 744.021 532.458 741.6C533.904 739.636 535.449 739.218 537.766 738.953C538.238 738.899 538.713 738.884 539.184 738.823C546.153 737.926 555.27 727.402 559.471 722.101L559.325 722.532C563.646 717.664 566.416 712.572 569.368 706.816C569.387 706.016 569.478 705.839 569.836 705.158L569.21 704.93C567.065 700.925 569.815 696.126 568.086 692.334C567.291 692.297 566.793 692.298 566.077 691.914C565.223 691.457 565.854 691.663 564.565 691.509C562.76 692.351 561.601 693.736 560.246 695.163C558.662 696.831 557.64 697.713 555.233 697.722C554.9 697.724 554.568 697.712 554.235 697.707C554.585 697.405 555.267 696.838 555.542 696.494C556.393 695.426 556.09 694.816 555.877 693.58C553.863 695.596 551.488 697.202 548.719 697.985C539.232 700.67 533.193 689.988 525.931 686.038C517.237 681.31 503.537 682.27 495.455 687.864C490.875 691.034 487.046 696.266 481.488 697.736C477.765 698.721 473.677 697.808 470.41 695.863C462.453 691.129 462.877 681.451 460.743 673.59L460.602 673.086C462.914 672.21 463.13 669.601 465.241 668.611C466.697 669.099 466.917 669.855 467.774 671.095C468.462 672.268 468.879 672.238 470.067 672.812C470.559 678.843 471.518 683.296 474.327 688.691L478.848 689.908C481.327 688.153 485.566 685.878 486.891 683.134L487.245 682.981C487.608 680.4 487.475 677.794 487.436 675.193C489.752 675.805 492.584 675.968 494.943 675.508L496.109 677.701C502.54 675.74 507.838 674.551 514.624 674.432C514.671 657.372 515.16 640.331 514.982 623.263C515.679 621.061 516.188 618.728 517.69 616.928L519.179 614.901L518.454 614.225C517.059 606.487 516.605 577.38 518.854 569.826C520.494 564.317 523.597 559.119 526.257 554.047C527.835 552.129 529.484 550.348 531.22 548.578C534.477 545.29 537.301 542.188 541.517 540.126L542.28 540.478C542.972 546.795 541.348 558.9 542.747 564.008C543.185 566.617 543.592 569.25 545.346 571.357C547.66 574.136 552.386 575.7 555.899 575.817C558.338 575.899 560.633 575.089 562.401 573.39C564.224 571.637 565.373 569.242 565.943 566.8C567.52 560.048 566.28 541.467 566.398 533.528Z"/><path fill="#5DAC97" transform="matrix(0.994526 -0.00547407 0.00547407 0.994526 -0.00012207 5.60547)" d="M637.832 768.714C640.469 765.738 646.911 763.972 650.583 761.939C650.552 760.207 651.504 758.848 651.73 757.22C652.125 754.374 648.26 749.444 647.82 746.167C647.117 740.929 648.587 731.151 649.232 725.656C649.754 721.214 650.753 716.621 651.839 712.281C652.629 709.123 654.125 706.36 654.265 703.048C654.454 698.608 654.956 694.164 654.942 689.717C654.932 686.487 654.347 683.172 654.572 679.958C655.017 673.614 664.409 646.458 668.331 642.347C672.254 638.235 695.209 625.495 700.5 623.745C705.232 622.181 709.658 621.754 714.612 621.683C715.33 622.146 716.061 622.577 716.801 623.004C723.156 631.447 725.671 642.338 728.295 652.373C731.169 674.877 725.64 693.684 712.449 712.12C713.32 714.936 713.717 717.668 714.095 720.581C710.806 725.056 708.945 725.126 705.649 728.416C702.294 731.765 699.59 735.756 695.741 738.6C691.165 741.982 685.681 743.846 680.851 746.789C675.03 750.336 670.131 755.098 664.117 758.482C659.947 760.828 655.245 761.56 651.128 763.7C646.979 765.857 642.756 769.079 638.079 769.934C637.891 769.968 637.7 769.978 637.511 770.001L636.02 769.822L637.832 768.714Z"/><defs><linearGradient id="gradient_4" gradientUnits="userSpaceOnUse" x1="681.12872" y1="734.07001" x2="687.13446" y2="743.39044"><stop offset="0" stop-color="#4E6C87"/><stop offset="1" stop-color="#687192"/></linearGradient></defs><path fill="url(#gradient_4)" transform="matrix(0.994526 -0.00547407 0.00547407 0.994526 -0.00012207 5.60547)" d="M637.832 768.714C665.396 758.059 695.02 735.842 712.449 712.12C713.32 714.936 713.717 717.668 714.095 720.581C710.806 725.056 708.945 725.126 705.649 728.416C702.294 731.765 699.59 735.756 695.741 738.6C691.165 741.982 685.681 743.846 680.851 746.789C675.03 750.336 670.131 755.098 664.117 758.482C659.947 760.828 655.245 761.56 651.128 763.7C646.979 765.857 642.756 769.079 638.079 769.934C637.891 769.968 637.7 769.978 637.511 770.001L636.02 769.822L637.832 768.714Z"/><path fill="#F9F9FA" transform="matrix(0.994526 -0.00547407 0.00547407 0.994526 -0.00012207 5.60547)" d="M519.179 614.901C520.696 614.766 521.875 614.654 523.204 615.55C524.301 616.288 524.78 617.489 524.903 618.755C525.692 626.869 524.876 635.779 524.734 643.962C524.553 654.451 524.791 664.977 524.495 675.454L525.563 675.623L525.544 676.054C528.204 676.929 530.437 678.505 532.76 680.024L536.884 682.889C538.407 681.867 540.206 681.439 541.539 680.116C545.648 676.036 545.594 669.775 550.691 666.535C550.572 669.505 549.915 673.195 551.819 675.642C553.073 671.757 554.643 667.931 557.003 664.577C560.162 660.086 565.149 656.153 570.732 655.402C572.292 655.193 574.385 655.348 575.524 656.573C576.664 657.799 577.219 660.304 577.129 661.916C577.006 664.607 576.995 667.232 577.117 669.924C577.315 672.18 577.213 674.968 578.886 676.709C579.752 677.609 580.959 678.18 581.87 679.087C579.727 679.645 578.261 680.232 577.044 682.173C574.131 686.819 572.808 698.471 571.115 704.41L570.036 706.83L569.368 706.816C569.387 706.016 569.478 705.839 569.836 705.158L569.21 704.93C567.065 700.925 569.815 696.126 568.086 692.334C567.291 692.297 566.793 692.298 566.077 691.914C565.223 691.457 565.854 691.663 564.565 691.509C562.76 692.351 561.601 693.736 560.246 695.163C558.662 696.831 557.64 697.713 555.233 697.722C554.9 697.724 554.568 697.712 554.235 697.707C554.585 697.405 555.267 696.838 555.542 696.494C556.393 695.426 556.09 694.816 555.877 693.58C553.863 695.596 551.488 697.202 548.719 697.985C539.232 700.67 533.193 689.988 525.931 686.038C517.237 681.31 503.537 682.27 495.455 687.864C490.875 691.034 487.046 696.266 481.488 697.736C477.765 698.721 473.677 697.808 470.41 695.863C462.453 691.129 462.877 681.451 460.743 673.59L460.602 673.086C462.914 672.21 463.13 669.601 465.241 668.611C466.697 669.099 466.917 669.855 467.774 671.095C468.462 672.268 468.879 672.238 470.067 672.812C470.559 678.843 471.518 683.296 474.327 688.691L478.848 689.908C481.327 688.153 485.566 685.878 486.891 683.134L487.245 682.981C487.608 680.4 487.475 677.794 487.436 675.193C489.752 675.805 492.584 675.968 494.943 675.508L496.109 677.701C502.54 675.74 507.838 674.551 514.624 674.432C514.671 657.372 515.16 640.331 514.982 623.263C515.679 621.061 516.188 618.728 517.69 616.928L519.179 614.901Z"/><path fill="#676591" transform="matrix(0.994526 -0.00547407 0.00547407 0.994526 -0.00012207 5.60547)" d="M577.129 661.916C577.006 664.607 576.995 667.232 577.117 669.924C577.315 672.18 577.213 674.968 578.886 676.709C579.752 677.609 580.959 678.18 581.87 679.087C579.727 679.645 578.261 680.232 577.044 682.173C574.131 686.819 572.808 698.471 571.115 704.41L570.036 706.83L569.368 706.816C569.387 706.016 569.478 705.839 569.836 705.158L569.21 704.93C567.065 700.925 569.815 696.126 568.086 692.334C567.291 692.297 566.793 692.298 566.077 691.914C565.223 691.457 565.854 691.663 564.565 691.509C562.76 692.351 561.601 693.736 560.246 695.163C558.662 696.831 557.64 697.713 555.233 697.722C554.9 697.724 554.568 697.712 554.235 697.707C554.585 697.405 555.267 696.838 555.542 696.494C556.393 695.426 556.09 694.816 555.877 693.58C556.174 692.031 557.346 690.229 557.833 688.619C558.993 684.782 559.691 680.813 560.809 676.954C561.053 676.216 561.298 675.494 561.598 674.776C564.638 667.499 569.341 665.237 576.274 662.491L577.129 661.916Z"/><path fill="#685F9C" transform="matrix(0.994526 -0.00547407 0.00547407 0.994526 -0.00012207 5.60547)" d="M577.129 661.916C577.006 664.607 576.995 667.232 577.117 669.924C574.278 670.19 571.519 670.498 568.718 671.053C567.956 672.261 567.247 673.865 565.912 674.492L564.978 673.938C567.676 668.313 572.187 670.608 575.5 667.036C576.672 665.773 576.272 664.096 576.274 662.491L577.129 661.916Z"/><path fill="#535082" transform="matrix(0.994526 -0.00547407 0.00547407 0.994526 -0.00012207 5.60547)" d="M569.836 705.158C569.485 697.732 568.716 691.077 569.819 683.58L570.14 683.466C571.325 690.184 569.384 697.147 570.977 703.871C571.02 704.051 571.069 704.23 571.115 704.41L570.036 706.83L569.368 706.816C569.387 706.016 569.478 705.839 569.836 705.158Z"/><defs><linearGradient id="gradient_5" gradientUnits="userSpaceOnUse" x1="547.10266" y1="684.76892" x2="542.46912" y2="669.30737"><stop offset="0" stop-color="#4E5281"/><stop offset="1" stop-color="#786FA4"/></linearGradient></defs><path fill="url(#gradient_5)" transform="matrix(0.994526 -0.00547407 0.00547407 0.994526 -0.00012207 5.60547)" d="M536.884 682.889C538.407 681.867 540.206 681.439 541.539 680.116C545.648 676.036 545.594 669.775 550.691 666.535C550.572 669.505 549.915 673.195 551.819 675.642C551.135 678.799 550.615 682.149 549.643 685.222L549.946 685.783C549.453 687.349 549.163 688.188 547.825 689.265C546.335 689.704 545.587 689.518 544.12 689.183L540.4 685.797L536.884 682.889Z"/><path fill="#676591" transform="matrix(0.994526 -0.00547407 0.00547407 0.994526 -0.00012207 5.60547)" d="M540.4 685.797C543.629 686.043 546.476 685.997 549.643 685.222L549.946 685.783C549.453 687.349 549.163 688.188 547.825 689.265C546.335 689.704 545.587 689.518 544.12 689.183L540.4 685.797Z"/><path fill="#A2C9C9" transform="matrix(0.994526 -0.00547407 0.00547407 0.994526 -0.00012207 5.60547)" d="M487.436 675.193C489.752 675.805 492.584 675.968 494.943 675.508L496.109 677.701C492.73 678.856 490.152 680.988 487.245 682.981C487.608 680.4 487.475 677.794 487.436 675.193Z"/><path fill="#E8F2F4" transform="matrix(0.994526 -0.00547407 0.00547407 0.994526 -0.00012207 5.60547)" d="M544.12 689.183C545.587 689.518 546.335 689.704 547.825 689.265C549.163 688.188 549.453 687.349 549.946 685.783C550.278 689.247 549.878 691.072 547.708 693.838L546.487 694.215C545.426 693.606 545.003 693.24 544.651 692.025C544.387 691.113 544.269 690.121 544.12 689.183Z"/><path fill="#E8F2F4" transform="matrix(0.994526 -0.00547407 0.00547407 0.994526 -0.00012207 5.60547)" d="M525.544 676.054C523.466 676.803 518.677 675.183 516.372 674.681C519.246 673.107 521.158 675.348 523.982 675.475C524.153 675.483 524.324 675.461 524.495 675.454L525.563 675.623L525.544 676.054Z"/><path fill="#F9F9FA" transform="matrix(0.994526 -0.00547407 0.00547407 0.994526 -0.00012207 5.60547)" d="M581.87 679.087C583.478 680.03 584.61 680.767 585.126 682.698C586.032 686.088 583.519 691.193 582.787 694.586C577.609 715.71 568.52 733.429 549.261 744.963C545.563 747.179 540.994 748.879 537.77 751.699C537.609 752.428 537.558 752.754 537.658 753.514C538.943 767.546 537.478 782.535 537.334 796.661C537.088 797.517 537.124 798.469 536.287 798.907C534.5 799.842 531.62 800.034 529.714 799.44C529.142 799.262 528.861 798.964 528.536 798.505L527.847 799.287C527.981 797.522 528.177 795.515 528.014 793.76C527.648 789.797 524.679 791.685 522.498 789.637C521.707 787.272 523.025 784.677 522.235 782.445C521.782 781.164 520.683 779.675 519.973 778.475C516.526 772.65 513.31 767.552 513.448 760.505C513.96 760 513.962 759.97 514.641 759.466C516.728 757.92 521.742 754.79 524.271 754.335C525.097 754.186 526.796 754.641 527.684 754.756C527.851 753.49 527.586 752.221 527.83 750.985C528.415 748.024 530.674 744.021 532.458 741.6C533.904 739.636 535.449 739.218 537.766 738.953C538.238 738.899 538.713 738.884 539.184 738.823C546.153 737.926 555.27 727.402 559.471 722.101L559.325 722.532C563.646 717.664 566.416 712.572 569.368 706.816L570.036 706.83L571.115 704.41C572.808 698.471 574.131 686.819 577.044 682.173C578.261 680.232 579.727 679.645 581.87 679.087Z"/><path fill="#685F9C" transform="matrix(0.994526 -0.00547407 0.00547407 0.994526 -0.00012207 5.60547)" d="M569.368 706.816L570.036 706.83C566.436 715.921 560.773 724.05 553.493 730.577C550.91 732.837 548.159 734.897 545.263 736.739C540.927 739.477 530.307 743.884 529.008 749.225C527.942 753.602 528.555 758.973 528.58 763.492C528.645 775.033 529.288 787.013 528.536 798.505L527.847 799.287C527.981 797.522 528.177 795.515 528.014 793.76C527.648 789.797 524.679 791.685 522.498 789.637C521.707 787.272 523.025 784.677 522.235 782.445C521.782 781.164 520.683 779.675 519.973 778.475C516.526 772.65 513.31 767.552 513.448 760.505C513.96 760 513.962 759.97 514.641 759.466C516.728 757.92 521.742 754.79 524.271 754.335C525.097 754.186 526.796 754.641 527.684 754.756C527.851 753.49 527.586 752.221 527.83 750.985C528.415 748.024 530.674 744.021 532.458 741.6C533.904 739.636 535.449 739.218 537.766 738.953C538.238 738.899 538.713 738.884 539.184 738.823C546.153 737.926 555.27 727.402 559.471 722.101L559.325 722.532C563.646 717.664 566.416 712.572 569.368 706.816Z"/><path fill="#E8F2F4" transform="matrix(0.994526 -0.00547407 0.00547407 0.994526 -0.00012207 5.60547)" d="M579.54 686.308C580.144 687.667 579.425 689.826 579.14 691.278C578.924 690.927 578.81 690.782 578.678 690.355C578.228 688.898 578.964 687.608 579.54 686.308Z"/><path fill="#676591" transform="matrix(0.994526 -0.00547407 0.00547407 0.994526 -0.00012207 5.60547)" d="M535.38 636.872C535.914 634.952 536.502 633.141 538.38 632.133C539.737 631.405 541.34 631.537 542.708 632.143C546.675 633.898 548.777 637.293 551.102 640.728C551.026 644.879 550.694 649.174 551.596 653.253C551.46 657.371 551.826 662.593 550.691 666.535C545.594 669.775 545.648 676.036 541.539 680.116C540.206 681.439 538.407 681.867 536.884 682.889L532.76 680.024C533.382 678.668 533.856 677.266 534.361 675.863L536.647 675.28L536.884 674.574L535.071 673.782C533.003 670.505 535.524 643.105 535.38 636.872Z"/><path fill="#39617E" transform="matrix(0.994526 -0.00547407 0.00547407 0.994526 -0.00012207 5.60547)" d="M533.612 631.734L535.38 636.872C535.524 643.105 533.003 670.505 535.071 673.782L536.884 674.574L536.647 675.28L534.361 675.863C533.856 677.266 533.382 678.668 532.76 680.024C530.437 678.505 528.204 676.929 525.544 676.054L525.563 675.623C526.36 675.684 526.994 675.6 527.781 675.492C529.541 673.271 529.593 646.166 529.831 640.997L530.231 640.925C531.562 644.508 529.441 667.206 529.448 672.887L529.912 673.197C530.925 672.535 530.845 672.48 531.158 671.294C531.03 671.087 530.676 670.498 530.533 670.336C528.052 667.528 533.404 656.209 533.942 652.257C534.703 646.67 534.375 641.32 532.547 635.952L532.39 635.502C532.612 634.042 532.845 633.037 533.612 631.734Z"/><path fill="#676591" transform="matrix(0.994526 -0.00547407 0.00547407 0.994526 -0.00012207 5.60547)" d="M537.334 796.661L538.002 797.416C549.044 798.264 561.42 794.282 572.05 791.508C575.032 793.526 578.807 794.2 582.242 795.147C583.637 795.552 585.071 795.82 586.205 796.774C585.701 797.185 585.968 797.12 585.349 797.057C581.693 796.68 577.453 794.366 574.038 794.421C567.24 794.529 567.042 801.12 558.829 797.409C556.138 797.683 546.954 798.89 544.728 799.67C543.75 800.013 542.705 799.903 541.681 799.878L544.339 800.587C543.763 801.252 543.639 801.499 542.735 801.498C538.195 801.492 533.656 800.088 529.008 800.13C528.627 799.871 528.163 799.622 527.847 799.287L528.536 798.505C528.861 798.964 529.142 799.262 529.714 799.44C531.62 800.034 534.5 799.842 536.287 798.907C537.124 798.469 537.088 797.517 537.334 796.661Z"/><path fill="#075057" transform="matrix(0.994526 -0.00547407 0.00547407 0.994526 -0.00012207 5.60547)" d="M582.787 694.586C584.051 697.151 581.917 702.489 581.017 705.153C579.717 709.001 574.581 718.773 574.175 721.664L574.559 722.028C575.392 722.833 576.305 723.51 576.368 724.743C576.451 726.374 575.959 727.475 575.156 728.85L574.483 729.157C573.168 728.369 572.778 725.139 571.71 725.074C567.48 730.267 563.08 735.086 558.297 739.784C559.423 740.661 559.931 740.726 560.141 742.178C559.525 743.292 559.01 743.762 557.712 744.048C554.928 744.664 551.384 743.783 549.305 746.332C548.833 746.911 549.025 747.494 549.033 748.197C549.812 749.29 549.916 749.502 551.143 750.001C551.668 749.124 551.28 748.464 551.111 747.486L551.746 747.364C552.569 748.298 552.533 748.433 552.655 749.687C551.995 750.856 551.958 750.91 550.734 751.452C547.581 750.031 546.206 748.198 542.535 749.545C541.018 750.102 540.114 750.646 539.322 752.105L539.183 754.869C538.675 754.427 538.129 753.995 537.658 753.514C537.558 752.754 537.609 752.428 537.77 751.699C540.994 748.879 545.563 747.179 549.261 744.963C568.52 733.429 577.609 715.71 582.787 694.586Z"/><path fill="#5A7793" transform="matrix(0.994526 -0.00547407 0.00547407 0.994526 -0.00012207 5.60547)" d="M636.02 769.822L637.511 770.001C630.008 776.797 605.808 782.101 595.459 785.926C590.009 787.94 585.143 790.583 580.339 793.812C580.496 793.89 580.654 793.963 580.808 794.046C581.391 794.362 581.771 794.694 582.242 795.147C578.807 794.2 575.032 793.526 572.05 791.508C578.086 789.225 584.181 787.909 590.364 786.176C594.084 785.133 597.694 783.718 601.39 782.592C613.018 779.05 625.404 775.956 636.02 769.822Z"/><path fill="#5A7793" transform="matrix(0.994526 -0.00547407 0.00547407 0.994526 -0.00012207 5.60547)" d="M533.612 631.734C536.382 629.409 540.006 627.162 543.807 627.434C545.984 627.588 547.989 628.672 549.309 630.41C552.516 634.562 552.409 648.092 551.596 653.253C550.694 649.174 551.026 644.879 551.102 640.728C548.777 637.293 546.675 633.898 542.708 632.143C541.34 631.537 539.737 631.405 538.38 632.133C536.502 633.141 535.914 634.952 535.38 636.872L533.612 631.734Z"/><path fill="#188379" transform="matrix(0.994526 -0.00547407 0.00547407 0.994526 -0.00012207 5.60547)" d="M541.517 540.126C538.126 547.041 538.101 554.69 537.66 562.238C537.174 558.89 537.182 555.587 537.173 552.212C535.007 551.377 533.896 550.556 532.476 548.739L531.22 548.578C534.477 545.29 537.301 542.188 541.517 540.126Z"/><path fill="#5DAC97" transform="matrix(0.994526 -0.00547407 0.00547407 0.994526 -0.00012207 5.60547)" d="M334.984 458.873C353.706 452.669 368.87 450.864 387.213 460.04C394.598 463.735 400.551 469.603 406.514 475.198C406.157 469.378 405.408 462.309 409.581 457.587C411.571 455.336 414.352 454.142 417.34 454.054C420.702 453.955 424.154 455.252 426.485 457.702C427.78 459.062 428.599 460.63 429.025 462.456C430.721 469.727 429.474 486.731 429.427 495C431.509 495.258 433.503 495.547 435.53 496.1C448.509 497.583 460.886 499.006 473.976 499.33L476.043 498.824C475.987 488.313 475.285 477.313 476.006 466.844C476.273 462.976 477.299 458.902 480.462 456.363C483.084 454.258 486.654 454.014 489.879 454.467C493.94 455.037 495.991 457.54 498.286 460.639C500.877 467.055 499.534 485.084 499.468 492.896C512.97 494.118 525.64 494.76 536.941 503.297L538.447 503.187C539.764 500.47 539.698 497.279 540.007 494.3L541.889 494.299C542.592 495.244 542.533 495.951 542.598 497.068C542.633 497.675 542.741 498.202 542.911 498.785L542.906 499.883C543.072 505.481 543.266 511.757 542.571 517.299L542.46 518.137C541.753 523.707 542.901 530.682 541.684 535.804C540.294 536.047 538.996 534.703 538.22 535.384C538.196 535.574 538.175 535.764 538.148 535.953C538.017 536.861 537.892 537.981 537.405 538.776C536.125 540.864 533.225 542.134 531.577 543.975C529.784 545.978 529.795 548.889 527.719 550.979C527.172 551.53 526.628 552.069 526.065 552.604L525.959 553.732L526.257 554.047C523.597 559.119 520.494 564.317 518.854 569.826C516.605 577.38 517.059 606.487 518.454 614.225L519.179 614.901L517.69 616.928C516.413 614.545 516.322 608.72 515.873 605.893C514.71 606.108 513.531 606.333 512.351 606.42C501.994 607.187 481.903 587.448 474.482 580.579C467.621 587.198 463.297 595.341 454.137 599.292C441.858 604.589 427.361 601.621 414.417 601.859C408.97 601.959 403.363 603.407 397.927 603.993C385.193 605.366 369.044 604.821 357.103 600.092C346.805 596.014 331.27 582.543 327.136 572.343C326.425 570.587 326.968 569.367 327.623 567.728C317.167 561.416 310.881 553.994 304.157 543.964C303.093 539.999 300.613 535.961 299.349 531.9C295.66 520.042 297.014 504.652 301.22 493.106C307.02 477.187 319.934 465.823 334.984 458.873Z"/><path fill="#F9F9FA" transform="matrix(0.994526 -0.00547407 0.00547407 0.994526 -0.00012207 5.60547)" d="M334.984 458.873C353.706 452.669 368.87 450.864 387.213 460.04C394.598 463.735 400.551 469.603 406.514 475.198C406.157 469.378 405.408 462.309 409.581 457.587C411.571 455.336 414.352 454.142 417.34 454.054C420.702 453.955 424.154 455.252 426.485 457.702C427.78 459.062 428.599 460.63 429.025 462.456C430.721 469.727 429.474 486.731 429.427 495C429.351 510.293 429.36 525.586 429.454 540.879C429.477 548.421 430.202 556.865 429.198 564.312C428.807 567.208 428.231 570.443 425.988 572.523C422.953 575.338 418.349 575.57 414.433 575.531C412.311 574.466 409.764 573.312 408.096 571.603C404.691 568.114 405.4 562.364 405.349 557.854L405.784 557.015L405.286 556.468C404.588 556.518 404.062 556.627 403.485 557.051C401.478 558.524 399.853 560.636 398.039 562.344C394.658 565.528 389.913 568.35 385.718 570.337C377.755 574.108 369.16 575.388 360.427 575.629C348.589 575.579 338.231 573.047 327.623 567.728C317.167 561.416 310.881 553.994 304.157 543.964C303.093 539.999 300.613 535.961 299.349 531.9C295.66 520.042 297.014 504.652 301.22 493.106C307.02 477.187 319.934 465.823 334.984 458.873Z"/><defs><linearGradient id="gradient_6" gradientUnits="userSpaceOnUse" x1="343.99469" y1="502.15823" x2="393.49228" y2="539.4986"><stop offset="0" stop-color="#64A58F"/><stop offset="1" stop-color="#9AD4B8"/></linearGradient></defs><path fill="url(#gradient_6)" transform="matrix(0.994526 -0.00547407 0.00547407 0.994526 -0.00012207 5.60547)" d="M345.971 478.611C354.563 474.409 366.02 474.344 374.97 477.494C381.9 479.933 387.855 484.171 393.067 489.28C400.56 496.269 404.673 505.957 405.027 516.192C405.12 518.905 404.911 521.438 404.115 524.052C405.29 525.874 406.317 527.322 405.919 529.592C405.618 531.306 404.584 532.47 403.171 533.398C401.649 534.399 399.9 534.995 398.131 535.367C393.453 542.597 386.148 548.18 378.233 551.42C367.529 555.821 355.507 555.741 344.862 551.199C334.726 546.784 327.721 539.214 323.674 529.015C321.797 522.002 320.924 515.266 322.134 508.036C323.911 497.966 329.596 489.006 337.95 483.108C340.31 481.206 343.2 479.796 345.971 478.611Z"/><defs><linearGradient id="gradient_7" gradientUnits="userSpaceOnUse" x1="343.17053" y1="480.84521" x2="357.44266" y2="506.59766"><stop offset="0" stop-color="#066660"/><stop offset="1" stop-color="#197E76"/></linearGradient></defs><path fill="url(#gradient_7)" transform="matrix(0.994526 -0.00547407 0.00547407 0.994526 -0.00012207 5.60547)" d="M345.971 478.611C354.563 474.409 366.02 474.344 374.97 477.494C381.9 479.933 387.855 484.171 393.067 489.28C371.438 490.134 360.754 495.981 343.931 509.196C338.792 513.234 333.494 517.162 329.028 521.96C327.033 524.104 325.093 526.447 323.674 529.015C321.797 522.002 320.924 515.266 322.134 508.036C323.911 497.966 329.596 489.006 337.95 483.108C340.31 481.206 343.2 479.796 345.971 478.611Z"/><path fill="#188379" transform="matrix(0.994526 -0.00547407 0.00547407 0.994526 -0.00012207 5.60547)" d="M337.95 483.108C340.31 481.206 343.2 479.796 345.971 478.611C345.181 481.128 343.721 483.306 341.377 484.602C339.703 484.667 339.29 484.058 337.95 483.108Z"/><path fill="#E8F2F4" transform="matrix(0.994526 -0.00547407 0.00547407 0.994526 -0.00012207 5.60547)" d="M404.115 524.052C405.29 525.874 406.317 527.322 405.919 529.592C405.618 531.306 404.584 532.47 403.171 533.398C401.649 534.399 399.9 534.995 398.131 535.367C400.223 531.62 402.646 528.109 404.115 524.052Z"/><path fill="#F9F9FA" transform="matrix(0.994526 -0.00547407 0.00547407 0.994526 -0.00012207 5.60547)" d="M476.043 498.824C475.987 488.313 475.285 477.313 476.006 466.844C476.273 462.976 477.299 458.902 480.462 456.363C483.084 454.258 486.654 454.014 489.879 454.467C493.94 455.037 495.991 457.54 498.286 460.639C500.877 467.055 499.534 485.084 499.468 492.896C499.338 508.861 499.292 524.826 499.329 540.792C499.339 548.619 500.196 557.3 499.165 565.021C498.809 567.695 498.388 570.406 496.319 572.322C493.735 574.715 490.014 575.323 486.637 575.438C486.418 575.402 486.199 575.367 485.981 575.328L485.008 575.146C484.599 575.071 484.188 575.005 483.782 574.917C479.964 574.093 478.083 571.578 476.03 568.472C475.536 545.281 476.12 522.025 476.043 498.824Z"/><path fill="#719D89" transform="matrix(0.994526 -0.00547407 0.00547407 0.994526 -0.00012207 5.60547)" d="M429.427 495C431.509 495.258 433.503 495.547 435.53 496.1C433.955 496.124 431.709 495.839 430.326 496.584C429.534 504.024 430.111 511.941 430.147 519.444L430.274 557.319C430.321 562.077 431.741 569.374 430.191 573.795L431.38 574.274C430.785 574.833 418.472 576.395 417.045 576.403C416.023 576.408 415.049 576.215 414.079 575.909L414.433 575.531C418.349 575.57 422.953 575.338 425.988 572.523C428.231 570.443 428.807 567.208 429.198 564.312C430.202 556.865 429.477 548.421 429.454 540.879C429.36 525.586 429.351 510.293 429.427 495Z"/><path fill="#7EC1AB" transform="matrix(0.994526 -0.00547407 0.00547407 0.994526 -0.00012207 5.60547)" d="M473.976 499.33L476.043 498.824C476.12 522.025 475.536 545.281 476.03 568.472C478.083 571.578 479.964 574.093 483.782 574.917C484.188 575.005 484.599 575.071 485.008 575.146L485.981 575.328C486.199 575.367 486.418 575.402 486.637 575.438C486.019 575.598 485.724 575.691 485.059 575.778C482.422 576.123 477.721 574.184 475.609 572.663C473.68 569.549 475.181 509.672 475.501 500.112L468.145 499.844L467.631 499.818C467.101 500.086 466.742 499.921 466.165 499.852C468.446 499.889 471.21 500.006 473.435 499.49C473.618 499.448 473.796 499.383 473.976 499.33Z"/><path fill="#719D89" transform="matrix(0.994526 -0.00547407 0.00547407 0.994526 -0.00012207 5.60547)" d="M360.427 575.629C369.16 575.388 377.755 574.108 385.718 570.337C389.913 568.35 394.658 565.528 398.039 562.344C399.853 560.636 401.478 558.524 403.485 557.051C404.062 556.627 404.588 556.518 405.286 556.468L405.784 557.015L405.349 557.854C405.211 559.2 405.09 560.525 405.044 561.877C405.014 562.748 404.902 563.364 404.649 564.188C404.582 561.761 404.482 559.329 404.5 556.901C403.066 558.792 401.542 560.62 399.732 562.166C397.417 564.141 392.731 566.492 391.233 568.97C390.872 569.566 390.808 570.427 390.909 571.097C391.076 572.199 391.361 573.297 391.553 574.398C388.813 575.092 386.484 572.651 383.479 572.795C380.676 572.929 378.083 574.124 375.395 574.806C370.691 576 365.743 576.494 360.899 576.61L360.132 576.106L360.427 575.629Z"/><path fill="#47A3A0" transform="matrix(0.994526 -0.00547407 0.00547407 0.994526 -0.00012207 5.60547)" d="M540.007 494.3L541.889 494.299C542.592 495.244 542.533 495.951 542.598 497.068C542.633 497.675 542.741 498.202 542.911 498.785L542.906 499.883C542.705 502.052 542.602 504.161 542.636 506.34L536.941 503.297L538.447 503.187C539.764 500.47 539.698 497.279 540.007 494.3Z"/><defs><linearGradient id="gradient_8" gradientUnits="userSpaceOnUse" x1="427.46484" y1="685.42651" x2="518.80444" y2="737.3587"><stop offset="0" stop-color="#47497B"/><stop offset="1" stop-color="#6C61A2"/></linearGradient></defs><path fill="url(#gradient_8)" transform="matrix(0.994526 -0.00547407 0.00547407 0.994526 -0.00012207 5.60547)" d="M443.356 658.47C445.887 657.828 448.117 657.83 450.449 659.15C452.317 660.208 453.936 661.621 455.501 663.076L455.724 663.36C457.803 666.547 459.253 669.515 460.602 673.086L460.743 673.59C462.877 681.451 462.453 691.129 470.41 695.863C473.677 697.808 477.765 698.721 481.488 697.736C487.046 696.266 490.875 691.034 495.455 687.864C503.537 682.27 517.237 681.31 525.931 686.038C533.193 689.988 539.232 700.67 548.719 697.985C551.488 697.202 553.863 695.596 555.877 693.58C556.09 694.816 556.393 695.426 555.542 696.494C555.267 696.838 554.585 697.405 554.235 697.707C553.649 698.545 553.882 698.535 552.74 698.765C548.195 699.68 543.404 697.425 539.313 698.263L539.716 700.805C538.7 701.316 539.347 701.079 538.073 701.287C534.075 701.94 521.308 707.763 519.189 710.745C518.62 711.546 518.299 712.438 517.867 713.308C516.715 715.622 514.343 717.309 512.909 719.511C508.34 726.527 504.966 738.405 506.532 746.743L506.583 746.535C507.146 750.831 508.615 756.969 505.701 760.652C503.312 763.671 499.692 765.702 496.759 768.172C494.227 770.303 491.675 773.112 490.617 776.297C489.118 780.813 490.041 792.758 490.171 798.008C491.606 798.754 492.819 798.005 494.364 797.846C497.318 797.541 501.403 798.799 504.247 799.652L504.454 799.984C495.573 799.931 461.21 798.938 455.029 794.692C466.501 796.363 477.693 798.292 489.27 799.267C490.036 791.084 489.509 782.491 489.444 774.26C488.184 766.308 490.468 756.453 487.558 748.97C486.138 747.701 484.986 748.046 483.248 747.535C480.098 746.609 480.051 742.967 478.153 740.77C475.421 737.609 470.991 737.068 468.695 733.062C468.618 732.929 468.547 732.792 468.474 732.657C465.759 730.453 463.192 728.074 460.789 725.535C448.271 712.293 445.248 701.808 441.661 684.41C440.232 677.481 438.892 670.824 439.077 663.709C440.359 661.644 441.489 660.06 443.356 658.47Z"/><path fill="#5DAC97" transform="matrix(0.994526 -0.00547407 0.00547407 0.994526 -0.00012207 5.60547)" d="M468.474 732.657C474.821 737.355 483.045 741.285 488.346 747.077C490.272 755.579 489.839 765.552 489.444 774.26C488.184 766.308 490.468 756.453 487.558 748.97C486.138 747.701 484.986 748.046 483.248 747.535C480.098 746.609 480.051 742.967 478.153 740.77C475.421 737.609 470.991 737.068 468.695 733.062C468.618 732.929 468.547 732.792 468.474 732.657Z"/><path fill="#39617E" transform="matrix(0.994526 -0.00547407 0.00547407 0.994526 -0.00012207 5.60547)" d="M443.356 658.47C445.887 657.828 448.117 657.83 450.449 659.15C452.317 660.208 453.936 661.621 455.501 663.076C452.492 663.727 448.398 665.077 445.516 663.545C444.959 662.181 444.817 660.811 444.622 659.364L443.356 658.47Z"/><path fill="#353563" transform="matrix(0.994526 -0.00547407 0.00547407 0.994526 -0.00012207 5.60547)" d="M470.982 701.773C474.969 701.336 478.249 701.43 482.124 702.34C478.561 702.559 474.364 703.096 470.982 701.773Z"/><defs><linearGradient id="gradient_9" gradientUnits="userSpaceOnUse" x1="487.15402" y1="659.79742" x2="523.86316" y2="630.48059"><stop offset="0" stop-color="#454480"/><stop offset="1" stop-color="#646399"/></linearGradient></defs><path fill="url(#gradient_9)" transform="matrix(0.994526 -0.00547407 0.00547407 0.994526 -0.00012207 5.60547)" d="M503.52 611.293C506.123 611.589 508.14 611.973 510.412 613.309C512.689 614.651 513.864 616.272 515.343 618.404C515.144 620.036 514.942 621.617 514.982 623.263C515.16 640.331 514.671 657.372 514.624 674.432C507.838 674.551 502.54 675.74 496.109 677.701L494.943 675.508L495.819 673.554L495.764 671.588C497.628 657.898 493.571 629.31 497.115 617.906C498.925 614.796 500.213 612.967 503.52 611.293Z"/><path fill="#676591" transform="matrix(0.994526 -0.00547407 0.00547407 0.994526 -0.00012207 5.60547)" d="M503.52 611.293C506.123 611.589 508.14 611.973 510.412 613.309C509.625 613.527 509.433 613.715 508.638 613.452C506.992 612.908 505.189 612.248 503.503 613.077C501.432 614.096 501 619.611 499.253 619.199C498.351 618.986 497.819 618.47 497.115 617.906C498.925 614.796 500.213 612.967 503.52 611.293Z"/><path fill="#353563" transform="matrix(0.994526 -0.00547407 0.00547407 0.994526 -0.00012207 5.60547)" d="M495.764 671.588C499.272 672.57 503.019 672.352 506.605 673.074C503.352 673.854 500.112 674.791 496.746 674.797C495.811 674.131 496.092 674.565 495.819 673.554L495.764 671.588Z"/><path fill="#535082" transform="matrix(0.994526 -0.00547407 0.00547407 0.994526 -0.00012207 5.60547)" d="M475.345 627.938C478.481 628.014 482.04 628.591 484.264 631.051C484.71 631.543 485.01 631.995 485.226 632.622C487.678 646.535 484.687 661.322 487.436 675.193C487.475 677.794 487.608 680.4 487.245 682.981L486.891 683.134C485.566 685.878 481.327 688.153 478.848 689.908L474.327 688.691C471.518 683.296 470.559 678.843 470.067 672.812C468.879 672.238 468.462 672.268 467.774 671.095L466.966 667.244C468.115 657.546 465.735 647.451 467.058 637.82C467.388 635.418 468.07 634.302 469.976 632.848C471.353 630.599 473.151 629.337 475.345 627.938Z"/><path fill="#7EC1AB" transform="matrix(0.994526 -0.00547407 0.00547407 0.994526 -0.00012207 5.60547)" d="M466.966 667.244C468.115 657.546 465.735 647.451 467.058 637.82C467.388 635.418 468.07 634.302 469.976 632.848C468.686 639.981 469.049 665.085 470.067 672.812C468.879 672.238 468.462 672.268 467.774 671.095L466.966 667.244Z"/><path fill="#A2C9C9" transform="matrix(0.994526 -0.00547407 0.00547407 0.994526 -0.00012207 5.60547)" d="M455.724 663.36C456.455 663.026 456.757 662.633 457.55 662.95C458.508 663.333 459.221 663.908 460.047 664.516C461.702 664.505 462.643 662.975 463.922 663.427C463.502 664.254 463.087 665.084 462.677 665.916C463.554 666.469 463.961 666.269 464.972 666.231C465.441 664.547 465.835 662.864 466.201 661.155C466.386 663.165 466.474 665.284 466.966 667.244L467.774 671.095C466.917 669.855 466.697 669.099 465.241 668.611C463.13 669.601 462.914 672.21 460.602 673.086C459.253 669.515 457.803 666.547 455.724 663.36Z"/><path fill="#5DAC97" transform="matrix(0.994526 -0.00547407 0.00547407 0.994526 -0.00012207 5.60547)" d="M503.52 611.293C507.335 609.764 510.332 610.873 514.233 611.157C514.767 613.555 515.446 615.934 515.343 618.404C513.864 616.272 512.689 614.651 510.412 613.309C508.14 611.973 506.123 611.589 503.52 611.293Z"/><path fill="#7EC1AB" transform="matrix(0.994526 -0.00547407 0.00547407 0.994526 -0.00012207 5.60547)" d="M475.345 627.938C476.54 626.605 477.847 626.066 479.628 625.988C481.566 625.904 483.336 626.384 484.78 627.727C485.32 628.229 485.575 628.805 485.852 629.471C485.805 630.685 485.714 631.505 485.226 632.622C485.01 631.995 484.71 631.543 484.264 631.051C482.04 628.591 478.481 628.014 475.345 627.938Z"/><path fill="#A2C9C9" transform="matrix(0.994526 -0.00547407 0.00547407 0.994526 -0.00012207 5.60547)" d="M490.864 640.711C492.321 641.417 493.17 642.174 494.132 643.439C494.419 644.981 494.429 644.954 493.631 646.304C492.752 646.475 491.875 646.617 490.99 646.755C489.949 645.997 489.919 645.9 489.506 644.674C489.718 643.043 489.931 642.078 490.864 640.711Z"/><path fill="#685F9C" transform="matrix(0.994526 -0.00547407 0.00547407 0.994526 -0.00012207 5.60547)" d="M750.563 345.406C765.988 343.05 777.461 344.078 792.144 349.493C795.529 350.741 799.085 352.723 802.482 353.732C803.339 353.794 804.194 353.871 805.049 353.963C817.05 355.168 847.57 385.61 855.537 395.58C856.921 397.311 858.34 399.48 858.827 401.673L858.527 402.331L857.464 402.548C856.14 401.17 856.6 399.184 855.492 397.742C852.626 394.013 840.165 384.286 839.671 380.552C828.216 371.181 818.339 362.488 804.603 356.43C803.408 355.903 802.124 354.261 800.904 354.279C799.132 356.937 797.522 359.409 795.001 361.435C788.596 366.586 785.835 379.673 778.252 383.068C772.321 385.723 771.098 390.748 766.419 394.443C763.205 396.98 757.416 397.894 754.773 400.715C753.772 401.784 753.583 404.757 752.542 405.675C749.349 408.489 744.413 408.812 742.739 413.592C741.036 418.456 738.561 424.49 735.595 428.716C734.248 430.635 730.705 431.627 730.254 433.619C730.104 434.281 729.972 434.956 729.818 435.616C729.008 439.068 724.955 442.758 723.099 445.85C722.599 446.684 722.262 446.91 721.421 447.352C724.793 447.648 733.417 447.394 735.85 449.201L735.809 449.978C731.693 451.532 724.869 448.017 721.251 450.788C721.218 451.982 720.96 452.067 721.801 453.001C723.296 452.92 724.92 452.679 726.374 453.027C730.821 453.705 735.123 455.193 739.513 455.839C745.917 456.783 754.673 453.554 760.226 458.473C760.57 459.245 760.95 459.681 760.824 460.534C759.511 460.134 758.587 458.895 757.371 458.693C756.816 459.77 757.067 460.654 757.39 461.816C758.643 466.331 768.542 475.871 772.173 479.638C773.07 479.154 774.687 477.986 775.7 478.299C779.288 479.407 787.399 491.511 788.977 495.145C789.982 497.459 790.966 500.881 792.501 502.799C793.832 504.463 795.967 505.574 797.065 507.419C802.303 516.223 799.898 527.363 797.772 536.685C797.357 538.503 796.465 540.37 796.271 542.194C795.77 546.894 798.143 552.341 796.203 556.856C794.076 561.803 790.155 563.684 786.765 567.444C779.468 575.539 775.487 583.376 764.64 587.226C750.924 592.094 729.367 593.89 715.808 587.59C707.855 583.894 700.584 577.408 691.806 575.586C687.085 574.606 682.479 573.914 679.598 569.561C678.816 568.38 678.721 567.651 678.819 566.267L680.67 563.902C675.653 557.909 670.588 555.266 665.645 547.661C665.23 548.643 665.188 549.257 665.113 550.305C664.089 550.792 663.983 550.651 662.957 550.262C661.676 549.775 660.066 548.8 659.399 547.576C660.464 545.734 661.854 543.843 662.12 541.7C660.425 535.917 657.88 532.492 657.019 526.136C656.435 521.833 655.748 517.032 656.003 512.697C656.174 509.766 657.55 505.547 656.656 502.826C656.435 502.963 656.219 503.109 655.993 503.239C653.394 504.725 650.661 502.939 649.425 506.433C648.08 510.238 649.095 513.651 646.514 517.121C646.447 518.412 646.425 519.634 646.504 520.928C645.074 522.94 643.681 525.277 642.032 527.093C639.855 529.491 636.603 530.766 634.189 532.889C632.318 534.534 626.232 545.17 626.658 547.321C626.856 548.321 627.375 548.901 627.963 549.707C627.93 550.653 627.692 550.929 627.214 551.719L628.685 552.72L628.482 553.493L627.288 553.815C629.8 555.809 632.741 556.019 635.452 557.639C636.337 558.168 637.324 558.506 638.288 558.866L638.945 559.706C638.525 560.277 638.237 560.516 637.677 560.926C638.214 561.026 639.507 561.883 639.615 561.878C640.193 561.847 640.552 561.045 641.131 561.031C641.613 561.018 646.295 564.737 646.741 565.44C647.087 565.986 647.086 566.289 647.341 566.894C648.372 569.345 652.261 570.745 654.527 571.895L653.847 572.688C647.259 569.281 641.094 565.08 634.53 561.62C629.254 558.839 623.636 556.804 618.395 553.935C609.891 549.28 601.5 544.124 592.572 540.32C584.342 536.813 574.088 537.294 566.398 533.528L566.363 527.449C575.555 524.318 585.976 525.934 595.498 525.932C603.386 525.931 611.628 525.125 617.798 519.661C625.699 512.665 637.401 489.52 643.263 479.751C654.304 461.192 665.697 442.844 677.436 424.717C693.382 399.687 703.992 381.067 725.492 359.754C733.474 353.899 741.209 348.864 750.563 345.406Z"/><path fill="#F9F9FA" transform="matrix(0.994526 -0.00547407 0.00547407 0.994526 -0.00012207 5.60547)" d="M723.462 453.571L726.374 453.027C730.821 453.705 735.123 455.193 739.513 455.839C745.917 456.783 754.673 453.554 760.226 458.473C760.57 459.245 760.95 459.681 760.824 460.534C759.511 460.134 758.587 458.895 757.371 458.693C756.816 459.77 757.067 460.654 757.39 461.816C758.643 466.331 768.542 475.871 772.173 479.638L772.091 481.446C777.33 491.601 780.817 500.925 781.126 512.458C781.586 529.555 776.035 544.496 764.159 556.86C752.478 569.021 736.943 574.451 720.336 574.644C702.655 574.849 686.975 569.288 674.318 556.73C662.828 545.331 656.92 530.623 656.908 514.497C656.896 498.619 662.917 482.469 674.338 471.256C687.729 458.108 705.211 453.402 723.462 453.571Z"/><path fill="#685F9C" transform="matrix(0.994526 -0.00547407 0.00547407 0.994526 -0.00012207 5.60547)" d="M723.462 453.571L726.374 453.027C730.821 453.705 735.123 455.193 739.513 455.839C745.917 456.783 754.673 453.554 760.226 458.473C760.57 459.245 760.95 459.681 760.824 460.534C759.511 460.134 758.587 458.895 757.371 458.693C756.816 459.77 757.067 460.654 757.39 461.816C758.643 466.331 768.542 475.871 772.173 479.638L772.091 481.446C765.241 472.97 758.512 466.192 749.034 460.696L743.302 458.248C736.736 455.911 730.368 454.488 723.462 453.571Z"/><path fill="#535082" transform="matrix(0.994526 -0.00547407 0.00547407 0.994526 -0.00012207 5.60547)" d="M743.302 458.248C744.235 456.966 744.32 456.579 745.95 456.295C748.265 455.891 751.636 456.721 753.996 457.036C752.229 458.101 750.296 459.026 749.034 460.696L743.302 458.248Z"/><defs><linearGradient id="gradient_10" gradientUnits="userSpaceOnUse" x1="688.3269" y1="491.8692" x2="742.10132" y2="531.19092"><stop offset="0" stop-color="#4B4677"/><stop offset="1" stop-color="#8272B9"/></linearGradient></defs><path fill="url(#gradient_10)" transform="matrix(0.994526 -0.00547407 0.00547407 0.994526 -0.00012207 5.60547)" d="M721.512 553.615C711.502 553.981 703.337 551.759 695.331 545.621C687.384 539.567 682.204 530.571 680.96 520.657C679.51 509.592 682.051 498.823 688.967 489.985C695.018 482.254 703.615 476.84 713.448 475.717C723.955 474.517 734.104 476.311 742.435 483.069C748.767 488.206 755.611 495.925 756.499 504.396C759.465 513.592 758.142 524.646 753.75 533.179C749.089 542.169 741.036 548.931 731.375 551.967C728.147 552.967 724.9 553.567 721.512 553.615Z"/><path fill="#685F9C" transform="matrix(0.994526 -0.00547407 0.00547407 0.994526 -0.00012207 5.60547)" d="M721.512 553.615L721.964 553.125C721.271 545.876 723.232 532.044 725.547 525.208L726.07 526.068C727.547 524.197 727.315 519.311 728.697 516.739C731.542 511.442 740.231 506.633 745.832 505.011C748.205 504.324 749.9 504.148 752.094 505.394C752.119 505.686 752.194 506.745 752.289 506.991C752.412 507.307 752.645 507.567 752.823 507.856C752.873 511.716 752.588 515.974 753.532 519.715C754.195 517.902 754.236 515.381 753.802 513.508C753.829 513.255 753.837 513 753.884 512.749C754.197 511.064 754.523 509.493 754.71 507.77C755.542 508.564 754.993 511.199 755.673 512.56L756.424 512.04C757.239 509.723 756.227 507.718 756.411 505.353C756.436 505.034 756.47 504.715 756.499 504.396C759.465 513.592 758.142 524.646 753.75 533.179C749.089 542.169 741.036 548.931 731.375 551.967C728.147 552.967 724.9 553.567 721.512 553.615Z"/><path fill="#676591" transform="matrix(0.994526 -0.00547407 0.00547407 0.994526 -0.00012207 5.60547)" d="M752.823 507.856C752.773 505.868 752.17 502.879 753.415 501.316C754.955 503.616 753.031 510.355 753.802 513.508C754.236 515.381 754.195 517.902 753.532 519.715C752.588 515.974 752.873 511.716 752.823 507.856Z"/><path fill="#979BB9" transform="matrix(0.994526 -0.00547407 0.00547407 0.994526 -0.00012207 5.60547)" d="M802.482 353.732C803.339 353.794 804.194 353.871 805.049 353.963C817.05 355.168 847.57 385.61 855.537 395.58C856.921 397.311 858.34 399.48 858.827 401.673L858.527 402.331L857.464 402.548C856.14 401.17 856.6 399.184 855.492 397.742C852.626 394.013 840.165 384.286 839.671 380.552C830.726 368.264 815.337 362.005 802.97 354.05L802.482 353.732Z"/><path fill="#F9F9FA" transform="matrix(0.994526 -0.00547407 0.00547407 0.994526 -0.00012207 5.60547)" d="M156.396 567.91C155.215 558.486 155.519 548.995 155.515 539.514L155.515 502.785L155.503 458.206C155.488 449.949 155.112 441.523 155.598 433.293C155.765 430.452 155.98 426.206 157.655 423.865C159.466 421.334 162.675 420.155 165.657 419.796C168.678 419.432 171.803 419.807 174.224 421.787C181.577 427.801 177.728 449.34 178.855 458.656C178.877 458.839 178.904 459.022 178.929 459.205C179.021 455.389 178.363 435.885 179.967 434.028C181.499 433.75 182.798 434.5 184.015 435.371C185.365 436.336 186.27 437.376 187.157 438.764C187.406 440.799 185.799 444.48 186.438 445.842C188.846 450.978 189.601 457.058 191.452 462.457C192.799 466.384 198.721 479.42 198.833 482.156C201.749 480.417 210.368 471.158 211.546 467.785C211.857 466.892 211.385 465.321 211.212 464.4C211.907 465.735 212.561 467.144 213.329 468.435C223.912 458.523 233.766 447.395 243.708 436.821C247.83 432.438 251.946 427.184 256.673 423.526C258.646 421.999 261.119 420.98 263.612 420.784C266.677 420.536 269.709 421.559 271.998 423.613C275.752 427.011 276.021 430.549 276.095 435.266L276.81 433.6C278.067 433.221 279.062 433.087 280.317 433.643C281.579 434.203 282.074 435.103 282.614 436.295L282.273 437.25L281.254 437.71L283.18 438.753L282.97 439.246C281.569 439.232 280.817 439.11 279.503 438.516L279.163 439.032C279.262 439.274 279.365 439.514 279.461 439.756C281.358 444.537 283.024 451.828 280.812 456.653C279.317 459.916 276.411 462.763 274.09 465.466C270.841 469.251 267.68 473.141 264.193 476.711C255.939 485.16 247.941 491.472 243.782 503C242.939 505.335 241.957 508.109 242.07 510.606C242.183 513.08 243.371 515.947 244.205 518.271C244.478 519.032 244.833 519.594 245.348 520.213C246.63 519.601 247.076 519.168 248.501 519.423L249.188 520.426C248.768 522.164 248.196 523.872 248.523 525.667C252.317 530.903 257.682 535.508 262.113 540.254C262.922 539.712 263.017 539.584 263.438 538.702C262.893 537.46 261.859 537.103 260.718 536.521L261.782 536.323L261.399 536.922C262.604 536.039 263.621 536.648 264.454 535.485C265.186 536.365 265.457 536.55 265.333 537.771C265.193 539.14 264.432 540.58 263.895 541.841C265.586 544.995 271.643 547.52 272.014 550.99L271.933 551.674C274.232 553.994 276.418 556.201 277.839 559.196C277.639 563.237 277.423 567.488 274.206 570.418C272.487 571.984 270.434 572.525 268.241 573.129C259.089 572.904 256.692 569.541 250.628 563.55L249.889 564.132C247.784 562.487 245.721 559.324 243.743 557.27L220.841 533.637C217.897 530.604 215.183 526.907 211.836 524.343C210.711 525.517 211.031 526.715 209.717 527.61L209.214 527.958C208.802 528.24 208.363 528.481 207.939 528.744C206.372 529.719 205.108 532.494 204.116 534.105C200.552 539.885 197.116 545.671 194.098 551.761C191.311 557.386 188.857 564.848 185.035 569.718C183.926 571.131 182.674 572.33 180.841 572.081C179.63 571.141 179.118 570.745 177.528 570.616C176.734 570.961 176.309 571.236 175.649 571.809C173.986 573.256 171.235 574.095 169.164 574.802L169.26 575.337L169.958 575.564C172.667 576.467 175.291 577.418 177.271 579.57L177.476 580.67L176.966 581.067C174.765 579.636 169.057 576.834 167.968 574.602L167.898 573.686C162.556 572.872 159.984 572.172 156.396 567.91Z"/><path fill="#F9F9FA" transform="matrix(0.994526 -0.00547407 0.00547407 0.994526 -0.00012207 5.60547)" d="M156.396 567.91C155.215 558.486 155.519 548.995 155.515 539.514L155.515 502.785L155.503 458.206C155.488 449.949 155.112 441.523 155.598 433.293C155.765 430.452 155.98 426.206 157.655 423.865C159.466 421.334 162.675 420.155 165.657 419.796C168.678 419.432 171.803 419.807 174.224 421.787C181.577 427.801 177.728 449.34 178.855 458.656C178.877 458.839 178.904 459.022 178.929 459.205C179.062 482.741 179.063 506.277 178.93 529.812C178.922 539.982 178.615 550.264 178.978 560.422C179.084 564.459 180.355 568.113 180.841 572.081C179.63 571.141 179.118 570.745 177.528 570.616C176.734 570.961 176.309 571.236 175.649 571.809C173.986 573.256 171.235 574.095 169.164 574.802L169.26 575.337L169.958 575.564C172.667 576.467 175.291 577.418 177.271 579.57L177.476 580.67L176.966 581.067C174.765 579.636 169.057 576.834 167.968 574.602L167.898 573.686C162.556 572.872 159.984 572.172 156.396 567.91Z"/><path fill="#676591" transform="matrix(0.994526 -0.00547407 0.00547407 0.994526 -0.00012207 5.60547)" d="M178.978 560.422C179.084 564.459 180.355 568.113 180.841 572.081C179.63 571.141 179.118 570.745 177.528 570.616C176.734 570.961 176.309 571.236 175.649 571.809C173.986 573.256 171.235 574.095 169.164 574.802L169.26 575.337L169.958 575.564C172.667 576.467 175.291 577.418 177.271 579.57L177.476 580.67L176.966 581.067C174.765 579.636 169.057 576.834 167.968 574.602L167.898 573.686C170.238 573.523 172.112 573.293 174.035 571.819C177.576 569.106 178.383 564.567 178.978 560.422Z"/><defs><linearGradient id="gradient_11" gradientUnits="userSpaceOnUse" x1="178.65012" y1="503.26343" x2="210.88332" y2="503.07925"><stop offset="0" stop-color="#4E4A6F"/><stop offset="1" stop-color="#79739A"/></linearGradient></defs><path fill="url(#gradient_11)" transform="matrix(0.994526 -0.00547407 0.00547407 0.994526 -0.00012207 5.60547)" d="M178.929 459.205C179.021 455.389 178.363 435.885 179.967 434.028C181.499 433.75 182.798 434.5 184.015 435.371C185.365 436.336 186.27 437.376 187.157 438.764C187.406 440.799 185.799 444.48 186.438 445.842C188.846 450.978 189.601 457.058 191.452 462.457C192.799 466.384 198.721 479.42 198.833 482.156C201.749 480.417 210.368 471.158 211.546 467.785C211.857 466.892 211.385 465.321 211.212 464.4C211.907 465.735 212.561 467.144 213.329 468.435C204.622 477.89 195.412 486.859 186.692 496.297L229.772 541.435C235.564 547.468 246.119 557.113 250.628 563.55L249.889 564.132C247.784 562.487 245.721 559.324 243.743 557.27L220.841 533.637C217.897 530.604 215.183 526.907 211.836 524.343C210.711 525.517 211.031 526.715 209.717 527.61L209.214 527.958C208.802 528.24 208.363 528.481 207.939 528.744C206.372 529.719 205.108 532.494 204.116 534.105C200.552 539.885 197.116 545.671 194.098 551.761C191.311 557.386 188.857 564.848 185.035 569.718C183.926 571.131 182.674 572.33 180.841 572.081C180.355 568.113 179.084 564.459 178.978 560.422C178.615 550.264 178.922 539.982 178.93 529.812C179.063 506.277 179.062 482.741 178.929 459.205Z"/><defs><linearGradient id="gradient_12" gradientUnits="userSpaceOnUse" x1="239.41418" y1="464.31451" x2="268.14105" y2="481.91589"><stop offset="0" stop-color="#494972"/><stop offset="1" stop-color="#757197"/></linearGradient></defs><path fill="url(#gradient_12)" transform="matrix(0.994526 -0.00547407 0.00547407 0.994526 -0.00012207 5.60547)" d="M276.095 435.266L276.81 433.6C278.067 433.221 279.062 433.087 280.317 433.643C281.579 434.203 282.074 435.103 282.614 436.295L282.273 437.25L281.254 437.71L283.18 438.753L282.97 439.246C281.569 439.232 280.817 439.11 279.503 438.516L279.163 439.032C279.262 439.274 279.365 439.514 279.461 439.756C281.358 444.537 283.024 451.828 280.812 456.653C279.317 459.916 276.411 462.763 274.09 465.466C270.841 469.251 267.68 473.141 264.193 476.711C255.939 485.16 247.941 491.472 243.782 503C242.939 505.335 241.957 508.109 242.07 510.606C242.183 513.08 243.371 515.947 244.205 518.271C244.478 519.032 244.833 519.594 245.348 520.213C246.63 519.601 247.076 519.168 248.501 519.423L249.188 520.426C248.768 522.164 248.196 523.872 248.523 525.667C252.317 530.903 257.682 535.508 262.113 540.254C262.922 539.712 263.017 539.584 263.438 538.702C262.893 537.46 261.859 537.103 260.718 536.521L261.782 536.323L261.399 536.922C262.604 536.039 263.621 536.648 264.454 535.485C265.186 536.365 265.457 536.55 265.333 537.771C265.193 539.14 264.432 540.58 263.895 541.841C265.586 544.995 271.643 547.52 272.014 550.99L271.933 551.674L218.636 496.147C227.354 488.066 272.518 442.155 276.095 435.266Z"/><path fill="#F9F9FA" transform="matrix(0.994526 -0.00547407 0.00547407 0.994526 -0.00012207 5.60547)" d="M805.694 477.323C810.549 466.969 815.049 460.329 826.084 455.893C840.113 450.254 854.564 453.377 867.924 459.065C872.664 461.451 874.906 462.817 876.762 467.977C877.247 466.617 877.368 465.664 878.491 464.728C880.479 466.243 880.227 469.188 882.32 471.086C883.569 477.159 884.469 484.549 884.305 490.734C884.199 494.728 883.495 498.719 883.506 502.711C883.517 506.879 884.617 511.259 883.334 515.354C882.454 507.48 882.391 495.593 879.602 488.534C878.742 488.242 878.853 488.083 877.97 488.522C876.576 489.216 875.744 490.501 874.166 490.869C870.148 491.806 861.163 491.342 858.141 492.903C857.584 493.19 857.39 493.873 857.27 494.447C857.093 495.289 857.183 496.354 857.182 497.22C855.923 498.094 854.701 497.774 853.199 497.743C851.905 497.716 851.442 497.957 850.29 498.37C849.685 498.587 848.833 498.667 848.213 498.776L847.8 499.204C850.246 500.778 852.85 501.298 855.576 502.184C863.044 504.612 870.106 508.078 875.252 514.15L875.095 514.689C881.174 523.155 884.508 531.69 882.764 542.235C881.708 548.652 879.287 554.768 875.665 560.169C875.908 560.621 876.585 561.558 876.657 562.018C877.148 565.153 874.317 575.457 873.28 578.811C872.735 580.573 872.153 582.391 871.015 583.862L870.704 584.015C870.738 583.152 870.665 583.462 870.911 582.696C871.248 581.646 871.64 580.795 871.563 579.668C867.419 578.88 861.566 583.83 857.038 584.25C847.42 585.144 840.25 582.765 831.772 578.394C827.608 576.248 823.018 577.762 818.705 576.224C817.085 575.646 816.733 573.892 816.068 572.433C814.859 569.783 813.09 567.92 810.315 566.918C807.585 565.933 806.252 563.532 804.518 561.31L804.162 561.476C804.464 562.979 804.809 564.473 805.198 565.955L804.6 566.141L802.766 564.576C801.694 561.279 802.736 553.589 802.873 549.844C804.028 548.027 805.31 546.515 807.509 546.011C811.921 545.002 817.589 544.68 821.533 547.013L821.432 547.611C826.174 552.163 836.025 554.159 842.4 554.07C847.333 554.002 853.678 552.691 857.014 548.745C857.407 548.282 857.424 548.191 857.657 547.72L857.392 547.21C858.925 543.727 859.713 540.197 859.419 536.368C859.209 533.634 858.442 532.734 856.439 531.035C856.079 533.703 857.518 537.226 857.78 540.017L857.269 540.368C855.926 539.244 856.173 537.218 855.603 535.674C855.181 534.531 854.754 534.153 854.721 532.898C854.7 532.109 854.681 531.639 854.472 530.843C854.237 529.952 854.052 530.075 853.309 529.659L850.045 530.629L849.302 529.609C848.967 530.766 849.243 530.302 848.585 531.063C844.848 529.158 840.965 528.371 837.064 526.952C833.915 525.807 830.924 524.126 827.989 522.52C824.779 520.763 818.677 521.028 816.739 518.113L817.181 517.134L818.218 516.868C818.517 517.105 818.819 517.336 819.115 517.577C819.786 518.126 820.448 518.793 821.205 519.221C822.337 519.861 823.082 519.768 824.281 519.465L823.966 518.307L824.986 516.702C823.827 516.426 824.33 516.664 823.346 515.942C820.506 513.857 817.173 512.48 814.335 510.398C812.443 509.009 811.406 506.915 809.614 505.618L809.423 507.045C809.983 508.552 810.727 509.182 811.954 510.207L812.413 510.584C811.215 510.936 810.257 511.177 808.996 511.223C806.572 509.105 809.098 505.545 808.267 502.738C807.581 500.419 805.947 498.242 804.974 496.007C802.778 490.969 803.102 481.924 805.152 476.824L805.694 477.323Z"/><defs><linearGradient id="gradient_13" gradientUnits="userSpaceOnUse" x1="845.18903" y1="466.56815" x2="876.27563" y2="504.07352"><stop offset="0" stop-color="#4C4877"/><stop offset="1" stop-color="#786DA8"/></linearGradient></defs><path fill="url(#gradient_13)" transform="matrix(0.994526 -0.00547407 0.00547407 0.994526 -0.00012207 5.60547)" d="M876.762 467.977C877.247 466.617 877.368 465.664 878.491 464.728C880.479 466.243 880.227 469.188 882.32 471.086C883.569 477.159 884.469 484.549 884.305 490.734C884.199 494.728 883.495 498.719 883.506 502.711C883.517 506.879 884.617 511.259 883.334 515.354C882.454 507.48 882.391 495.593 879.602 488.534C878.742 488.242 878.853 488.083 877.97 488.522C876.576 489.216 875.744 490.501 874.166 490.869C870.148 491.806 861.163 491.342 858.141 492.903C857.584 493.19 857.39 493.873 857.27 494.447C857.093 495.289 857.183 496.354 857.182 497.22C855.923 498.094 854.701 497.774 853.199 497.743C851.905 497.716 851.442 497.957 850.29 498.37C849.685 498.587 848.833 498.667 848.213 498.776L847.8 499.204C850.246 500.778 852.85 501.298 855.576 502.184C863.044 504.612 870.106 508.078 875.252 514.15L875.095 514.689C866.541 507.124 857.206 503.136 846.342 499.911C841.606 498.506 836.4 497.395 832.33 494.443C829.782 492.595 828.007 490.073 827.666 486.89C827.355 483.984 828.344 480.649 830.217 478.397C832.34 475.844 835.707 474.179 838.929 473.579C852.908 470.974 862.268 482.197 869.231 481.491C871.24 481.288 872.942 480.187 874.199 478.645C876.882 475.353 877.301 472.051 876.762 467.977Z"/><path fill="#685F9C" transform="matrix(0.994526 -0.00547407 0.00547407 0.994526 -0.00012207 5.60547)" d="M870.704 584.015C870.738 583.152 870.665 583.462 870.911 582.696C871.248 581.646 871.64 580.795 871.563 579.668C867.419 578.88 861.566 583.83 857.038 584.25C847.42 585.144 840.25 582.765 831.772 578.394C827.608 576.248 823.018 577.762 818.705 576.224C817.085 575.646 816.733 573.892 816.068 572.433C814.859 569.783 813.09 567.92 810.315 566.918C807.585 565.933 806.252 563.532 804.518 561.31L804.162 561.476C804.464 562.979 804.809 564.473 805.198 565.955L804.6 566.141L802.766 564.576C801.694 561.279 802.736 553.589 802.873 549.844C804.028 548.027 805.31 546.515 807.509 546.011C811.921 545.002 817.589 544.68 821.533 547.013L821.432 547.611L820.725 547.344C817.473 546.14 814.155 545.412 810.799 546.853C808.051 548.034 806.118 550.859 805.176 553.613C804.322 556.109 804.509 558.721 805.726 561.065C808.856 567.091 817.822 570.575 824.04 572.297C837.011 575.887 853.822 575.963 865.741 568.993C869.752 566.647 872.723 563.729 875.665 560.169C875.908 560.621 876.585 561.558 876.657 562.018C877.148 565.153 874.317 575.457 873.28 578.811C872.735 580.573 872.153 582.391 871.015 583.862L870.704 584.015Z"/><path fill="#535082" transform="matrix(0.994526 -0.00547407 0.00547407 0.994526 -0.00012207 5.60547)" d="M861.596 573.424C863.124 574.217 864.752 574.134 866.306 574.865L865.882 575.748C864.853 575.847 863.714 576.031 862.698 575.793C861.609 575.538 861.623 575.547 861.059 574.527L861.596 573.424Z"/><path fill="#685F9C" transform="matrix(0.994526 -0.00547407 0.00547407 0.994526 -0.00012207 5.60547)" d="M857.657 547.72L857.392 547.21C858.925 543.727 859.713 540.197 859.419 536.368C859.209 533.634 858.442 532.734 856.439 531.035C856.079 533.703 857.518 537.226 857.78 540.017L857.269 540.368C855.926 539.244 856.173 537.218 855.603 535.674C855.181 534.531 854.754 534.153 854.721 532.898C854.7 532.109 854.681 531.639 854.472 530.843C854.237 529.952 854.052 530.075 853.309 529.659L850.045 530.629L849.302 529.609C848.967 530.766 849.243 530.302 848.585 531.063C844.848 529.158 840.965 528.371 837.064 526.952C833.915 525.807 830.924 524.126 827.989 522.52C824.779 520.763 818.677 521.028 816.739 518.113L817.181 517.134L818.218 516.868C818.517 517.105 818.819 517.336 819.115 517.577C819.786 518.126 820.448 518.793 821.205 519.221C822.337 519.861 823.082 519.768 824.281 519.465L823.966 518.307L824.986 516.702C823.827 516.426 824.33 516.664 823.346 515.942C820.506 513.857 817.173 512.48 814.335 510.398C812.443 509.009 811.406 506.915 809.614 505.618L809.423 507.045C809.983 508.552 810.727 509.182 811.954 510.207L812.413 510.584C811.215 510.936 810.257 511.177 808.996 511.223C806.572 509.105 809.098 505.545 808.267 502.738C807.581 500.419 805.947 498.242 804.974 496.007C802.778 490.969 803.102 481.924 805.152 476.824L805.694 477.323C803.526 486.075 803.882 494.223 808.625 502.128C822.015 524.443 865.88 517.142 859.858 543.319C859.461 545.045 858.802 546.366 857.657 547.72Z"/><path fill="#676591" transform="matrix(0.994526 -0.00547407 0.00547407 0.994526 -0.00012207 5.60547)" d="M875.252 514.15C877.16 513.715 877.367 512.024 879.256 511.658L880.654 512.783L880.717 513.799C879.528 514.836 878.635 515.003 877.143 515.268L876.989 516.424C878.891 518.45 882.242 517.991 884.781 518.872C886.537 519.482 888.024 520.697 888.883 522.353C890.59 525.642 892.514 543.073 892.383 547.403C891.824 565.864 877.56 594.292 864.078 606.701C861.596 608.986 858.911 611.072 856.522 613.457C854.181 615.795 851.942 619.528 849.24 621.293C847.057 622.719 844.37 622.82 841.986 623.712C837.289 625.471 833.135 628.644 828.483 630.511C823.862 632.366 818.623 632.647 813.972 634.443C810.603 635.744 807.845 638.404 804.453 639.798C799.153 641.977 793.088 642.878 787.596 644.671C783.668 645.954 779.728 648.158 775.822 649.168C770.568 650.527 751.838 654.778 748.68 656.88C747.093 657.937 745.323 658.774 744.065 660.254C738.811 666.431 733.697 691.037 729.515 699.974C726.999 705.353 718.287 715.984 714.095 720.581C713.717 717.668 713.32 714.936 712.449 712.12C725.64 693.684 731.169 674.877 728.295 652.373C729.188 651.728 729.946 651.24 731.034 650.982C735.933 649.817 741.52 649.983 746.549 649.42C751.531 648.863 775.206 645.309 777.877 643.108C802.399 636.801 839.795 625.424 856.817 605.787C861.756 600.089 866.307 588.326 870.232 584.412C870.377 584.267 870.547 584.148 870.704 584.015L871.015 583.862C872.153 582.391 872.735 580.573 873.28 578.811C874.317 575.457 877.148 565.153 876.657 562.018C876.585 561.558 875.908 560.621 875.665 560.169C879.287 554.768 881.708 548.652 882.764 542.235C884.508 531.69 881.174 523.155 875.095 514.689L875.252 514.15Z"/><path fill="#F9F9FA" transform="matrix(0.994526 -0.00547407 0.00547407 0.994526 -0.00012207 5.60547)" d="M967.583 943.662C969.577 944.963 970.403 948.318 971.341 950.444C975.763 960.467 983.893 964.373 993.514 968.063C991.189 968.903 988.855 969.774 986.588 970.759C976.507 975.137 972.236 982.608 968.404 992.333C966.264 990.711 965.035 986.517 963.88 984.028C959.697 975.015 951.291 971.243 942.471 968.045C944.991 967.039 947.577 966.109 950.039 964.97C959.718 960.494 963.928 953.241 967.583 943.662Z"/><path fill="#685F9C" transform="matrix(0.994526 -0.00547407 0.00547407 0.994526 -0.00012207 5.60547)" d="M654.527 571.895C658.376 574.277 662.701 575.738 666.567 578.023C670.253 580.202 673.664 582.922 677.245 585.275C681.3 587.938 685.657 590.14 689.671 592.845C695.26 596.612 700.852 601.975 705.673 606.702C708.675 609.663 711.413 612.881 713.855 616.319C715.291 618.367 716.582 621.175 718.383 622.885C721.734 626.069 726.84 627.106 729.856 630.856C733.247 635.072 735.906 646.632 737.552 648.874C739.771 651.895 775.311 641.629 777.877 643.108C775.206 645.309 751.531 648.863 746.549 649.42C741.52 649.983 735.933 649.817 731.034 650.982C729.946 651.24 729.188 651.728 728.295 652.373C725.671 642.338 723.156 631.447 716.801 623.004C705.738 601.302 674.586 584.05 653.847 572.688L654.527 571.895Z"/><path fill="#676591" transform="matrix(0.994526 -0.00547407 0.00547407 0.994526 -0.00012207 5.60547)" d="M867.924 459.065L868.153 458.337C870.069 458.88 871.338 459.941 872.977 461.01C873.53 459.816 872.286 457.926 872.017 456.587C871.647 454.744 871.625 452.834 871.248 450.98C869.536 442.545 866.922 433.674 863.974 425.587C862.301 420.998 860.503 416.564 858.276 412.214C856.525 408.792 854.312 405.268 852.946 401.688C852.523 400.58 852.292 399.785 852.534 398.629C853.639 399.082 854.832 401.641 855.33 402.766C855.685 403.569 855.982 404.397 856.279 405.221C857.283 408.003 859.313 410.214 860.442 412.942C863.402 420.09 865.518 427.658 868.511 434.813C869.983 438.329 872.119 441.616 873.81 445.036C877.329 452.15 880.687 460.819 882.579 468.542C882.804 469.462 882.548 470.196 882.32 471.086C880.227 469.188 880.479 466.243 878.491 464.728C877.368 465.664 877.247 466.617 876.762 467.977C874.906 462.817 872.664 461.451 867.924 459.065Z"/><defs><linearGradient id="gradient_14" gradientUnits="userSpaceOnUse" x1="275.86588" y1="565.04401" x2="286.7413" y2="567.12402"><stop offset="0" stop-color="#6E6281"/><stop offset="1" stop-color="#657390"/></linearGradient></defs><path fill="url(#gradient_14)" transform="matrix(0.994526 -0.00547407 0.00547407 0.994526 -0.00012207 5.60547)" d="M272.014 550.99C273.371 552.162 274.647 553.248 275.747 554.677C276.796 556.041 277.776 556.443 279.489 556.674C279.785 556.714 280.082 556.743 280.379 556.777L280.441 556.141C279.461 555.09 276.456 552.869 276.313 551.695C277.53 551.309 279.041 551.446 280.225 551.957C280.915 552.254 281.044 552.386 281.591 552.784C282.885 558.751 281.93 565.403 286.992 569.787C287.681 568.954 287.581 568.678 287.728 567.642C286.326 566.555 284.471 565.542 284.136 563.761L284.861 563.005C286.139 564.046 286.652 565.204 288.351 565.304C289.796 564.263 290.955 562.601 291.229 560.807C291.272 560.525 291.275 559.376 291.277 559.179L292.401 560.427C289.333 566.973 285.892 573.614 284.243 580.683L283.674 583.122C283.363 582.082 283.287 581.442 283.484 580.391C283.65 579.511 283.724 578.787 283.68 577.882C283.027 577.584 282.508 577.375 282.003 576.844C281.457 576.268 281.754 573.165 281.763 572.235C281.252 573.815 280.711 575.149 279.876 576.587C278.86 576.955 278.41 576.874 277.376 576.595C276.816 574.986 277.498 574.032 277.817 572.399C278.058 571.167 278.104 570.675 277.385 569.646C275.425 569.334 272.484 573.351 269.651 573.69C268.729 573.801 269.051 573.789 268.241 573.129C270.434 572.525 272.487 571.984 274.206 570.418C277.423 567.488 277.639 563.237 277.839 559.196C276.418 556.201 274.232 553.994 271.933 551.674L272.014 550.99Z"/></svg>