<?xml version="1.0" encoding="UTF-8"?>
<svg version="1.1" xmlns="http://www.w3.org/2000/svg" width="64" height="64">
<path d="M0 0 C3 0.25 3 0.25 5 2.25 C5.1953125 4.8515625 5.1953125 4.8515625 5.125 7.875 C5.10695313 8.87789062 5.08890625 9.88078125 5.0703125 10.9140625 C5.03550781 12.07035156 5.03550781 12.07035156 5 13.25 C6.01320313 12.4559375 7.02640625 11.661875 8.0703125 10.84375 C9.42129943 9.81174609 10.7728942 8.78053756 12.125 7.75 C12.79015625 7.22535156 13.4553125 6.70070313 14.140625 6.16015625 C17.34329942 3.74245105 19.32745219 2.34362614 23.3671875 1.78125 C26 2.25 26 2.25 28 4.25 C28.38671875 7.1171875 28.38671875 7.1171875 28 10.25 C26.20703125 12.4453125 26.20703125 12.4453125 23.8125 14.375 C23.03519531 15.01695313 22.25789063 15.65890625 21.45703125 16.3203125 C20.64621094 16.95710938 19.83539063 17.59390625 19 18.25 C18.07574219 18.98992188 17.15148437 19.72984375 16.19921875 20.4921875 C15.47347656 21.07226562 14.74773438 21.65234375 14 22.25 C14.92683594 23.16523437 15.85367188 24.08046875 16.80859375 25.0234375 C18.01836039 26.2238261 19.22798865 27.42435417 20.4375 28.625 C21.04916016 29.22828125 21.66082031 29.8315625 22.29101562 30.453125 C23.1659668 31.32324219 23.1659668 31.32324219 24.05859375 32.2109375 C24.59798584 32.74509277 25.13737793 33.27924805 25.69311523 33.82958984 C27.73402439 36.04778702 27.99599066 37.18585053 28.1875 40.25 C28 43.25 28 43.25 26 45.25 C23.3359375 45.8125 23.3359375 45.8125 20 45.25 C17.22434784 43.21381892 14.95689247 40.77175427 12.625 38.25 C11.98433594 37.58226562 11.34367187 36.91453125 10.68359375 36.2265625 C9.10799808 34.58041777 7.54809281 32.92196565 6 31.25 C5.95101563 32.09304687 5.90203125 32.93609375 5.8515625 33.8046875 C5.77679688 34.90039062 5.70203125 35.99609375 5.625 37.125 C5.55539063 38.21554688 5.48578125 39.30609375 5.4140625 40.4296875 C5 43.25 5 43.25 3 45.25 C0 45.5 0 45.5 -3 45.25 C-5.68960183 42.56039817 -5.24959163 40.47892482 -5.27789307 36.8236084 C-5.2738446 35.94338013 -5.26979614 35.06315186 -5.265625 34.15625 C-5.26753845 33.2537854 -5.2694519 32.3513208 -5.27142334 31.42150879 C-5.27278559 29.51163454 -5.26908638 27.60175104 -5.26074219 25.69189453 C-5.25004321 22.7618335 -5.26063611 19.83238562 -5.2734375 16.90234375 C-5.27211591 15.04947781 -5.26955353 13.19661225 -5.265625 11.34375 C-5.26967346 10.46352173 -5.27372192 9.58329346 -5.27789307 8.6763916 C-5.21407993 0.43450666 -5.21407993 0.43450666 0 0 Z " fill="#011A3C" transform="translate(22,9.75)"/>
<path d="M0 0 C2.0826461 -0.00218638 4.16476195 -0.02036316 6.24731445 -0.03930664 C8.22634766 -0.04220703 8.22634766 -0.04220703 10.24536133 -0.04516602 C11.4505542 -0.0492749 12.65574707 -0.05338379 13.89746094 -0.05761719 C17.08059047 0.17971619 19.29266683 0.82096222 22.15551758 2.18530273 C21.82551758 3.17530273 21.49551758 4.16530273 21.15551758 5.18530273 C16.08195901 7.28108374 9.69151936 6.37123914 4.31103516 6.37060547 C2.22838906 6.37279185 0.14627321 6.39096863 -1.9362793 6.40991211 C-3.9153125 6.4128125 -3.9153125 6.4128125 -5.93432617 6.41577148 C-7.13951904 6.41988037 -8.34471191 6.42398926 -9.58642578 6.42822266 C-12.76955531 6.19088928 -14.98163168 5.54964324 -17.84448242 4.18530273 C-17.51448242 3.19530273 -17.18448242 2.20530273 -16.84448242 1.18530273 C-11.77092385 -0.91047828 -5.3804842 -0.00063367 0 0 Z " fill="#000000" transform="translate(29.844482421875,57.814697265625)"/>
<path d="M0 0 C0.99 0.103125 1.98 0.20625 3 0.3125 C3.66 1.3025 4.32 2.2925 5 3.3125 C3.35 3.9725 1.7 4.6325 0 5.3125 C0.02320313 6.28832031 0.04640625 7.26414062 0.0703125 8.26953125 C0.09738281 10.17798828 0.09738281 10.17798828 0.125 12.125 C0.14820313 13.38957031 0.17140625 14.65414063 0.1953125 15.95703125 C0 19.3125 0 19.3125 -2 22.3125 C-2.99 22.3125 -3.98 22.3125 -5 22.3125 C-5.05790353 19.02090684 -5.09356261 15.72944397 -5.125 12.4375 C-5.14175781 11.50035156 -5.15851562 10.56320313 -5.17578125 9.59765625 C-5.18544922 8.25380859 -5.18544922 8.25380859 -5.1953125 6.8828125 C-5.20578613 6.05539551 -5.21625977 5.22797852 -5.22705078 4.37548828 C-4.8330635 0.79571137 -3.40710408 0.35490667 0 0 Z " fill="#4A5D77" transform="translate(22,9.6875)"/>
<path d="M0 0 C0.99 0 1.98 0 3 0 C3 2.31 3 4.62 3 7 C2.01 7 1.02 7 0 7 C0 4.69 0 2.38 0 0 Z " fill="#EDEFF1" transform="translate(19,15)"/>
</svg>
